<?xml version="1.0" encoding="UTF-8"?>
<svg version="1.1" viewBox="0 0 1600 424" width="1280" height="1280" xmlns="http://www.w3.org/2000/svg">
<path transform="translate(0)" d="m0 0h1600v424h-1600v-424z" fill="#FEFDFE"/>
<path transform="translate(566 83.7)" d="m0 0c1.05 0.00187 2.1 0.00375 3.19 0.00568 2.22 0.00671 4.43 0.0206 6.65 0.0412 3.4 0.0312 6.8 0.041 10.2 0.0469 2.15 0.00917 4.31 0.0195 6.46 0.0312 1.53 0.00637 1.53 0.00637 3.09 0.0129 0.945 0.00961 1.89 0.0192 2.86 0.0291 0.831 0.00683 1.66 0.0137 2.52 0.0207 2.15 0.14 2.15 0.14 5.15 1.14 1.07 2.26 1.93 4.4 2.75 6.75 0.379 1.05 0.379 1.05 0.765 2.12 3.61 10.1 6.92 20.3 10.3 30.5 1.61 4.89 3.34 9.71 5.17 14.5 0.529 1.4 1.06 2.8 1.59 4.2 0.254 0.672 0.507 1.34 0.769 2.04 1.61 4.28 3.16 8.58 4.71 12.9 0.549 1.51 0.549 1.51 1.11 3.05 2.93 8.09 5.66 16.2 8.37 24.4 1.78 5.35 3.6 10.7 5.56 16 1.6 4.32 3.13 8.66 4.68 13 0.818 2.29 1.64 4.59 2.46 6.88 9.59 26.8 9.59 26.8 13.9 40 0.988 2.9 2.06 5.76 3.14 8.62 1.24 3.31 2.42 6.63 3.59 9.96 0.255 0.721 0.51 1.44 0.773 2.19 2.19 6.23 4.29 12.5 6.32 18.8 1.48 4.5 3.22 8.8 5.09 13.2 0.765 2.2 1.5 4.4 2.19 6.62 0.344 1.09 0.688 2.17 1.04 3.29 0.716 2.87 0.831 5.15 0.77 8.09-6.19 0.0989-12.4 0.171-18.6 0.22-2.11 0.0201-4.21 0.0474-6.32 0.082-3.03 0.0485-6.06 0.0712-9.08 0.0889-1.41 0.031-1.41 0.031-2.85 0.0626-6.48 0.00222-6.48 0.00222-9.64-2.11-1.74-2.67-2.84-5.18-3.89-8.19-0.408-1.15-0.816-2.31-1.24-3.5-0.42-1.23-0.839-2.45-1.27-3.72-0.441-1.26-0.883-2.53-1.33-3.79-3.06-8.77-5.93-17.6-8.64-26.5-1.06-3.54-1.06-3.54-2.31-6.41-0.844-2.25-0.844-2.25-0.844-6.25-46-0.495-46-0.495-93-1-0.66 2.97-1.32 5.94-2 9-0.592 1.65-1.23 3.28-1.94 4.88-1.85 4.42-3.14 8.84-4.35 13.5-7.67 28.6-7.67 28.6-12.7 33.7-1.79 0.1-3.58 0.131-5.37 0.133-1.12 0.00193-2.25 0.00387-3.41 0.00586-1.21-0.00451-2.42-0.00902-3.66-0.0137-1.22-0.00193-2.43-0.00387-3.69-0.00586-9.65-0.0458-19.2-0.415-28.9-1.12-1.29-3.59-0.698-5.56 0.688-9.06 0.379-0.981 0.758-1.96 1.15-2.97 0.384-0.978 0.768-1.96 1.16-2.96 0.61-1.66 1.21-3.33 1.81-5 1.24-3.41 2.49-6.81 3.75-10.2 8.25-21.4 8.25-21.4 14.7-43.4 0.958-3.25 2.37-6.27 3.7-9.39 0.838-2.43 1.65-4.87 2.44-7.31 1.41-4.33 2.88-8.61 4.62-12.8 1.55-3.74 2.78-7.5 3.94-11.4 1.41-4.72 3.05-9.24 4.94-13.8 1.29-3.3 2.4-6.66 3.5-10 1.96-6 4.14-11.9 6.44-17.8 1.51-3.93 2.83-7.91 4.12-11.9 2.5-7.63 5.13-15.2 7.85-22.8 0.928-2.61 1.81-5.23 2.65-7.87 1.16-3.55 2.58-6.94 4.06-10.4 1.84-4.33 3.09-8.4 3.99-13 0.549-2.44 1.48-4.64 2.54-6.9 0.756-1.74 1.41-3.52 2.04-5.31 0.617-1.75 0.617-1.75 1.25-3.53 0.568-1.66 0.568-1.66 1.15-3.36 3.67-7.18 10.2-6.31 17.4-6.22z" fill="#FC1F9A"/>
<path transform="translate(1360 144)" d="m0 0c20.7-0.54 42.2 3.46 59.1 16.2 0.638 0.461 1.28 0.923 1.93 1.4 4.19 3.26 6.54 6.72 8.94 11.4 1.19 2.4 1.19 2.4 3.31 5.36 6.92 10.7 7.26 25.8 7.03 38.1-0.0141 1.4-0.0268 2.8-0.0382 4.2-0.0281 3.11-0.066 6.22-0.111 9.32-0.0792 5.61-0.128 11.2-0.175 16.8-0.102 11.7-0.228 23.4-0.358 35.1-0.0616 5.57-0.121 11.1-0.181 16.7-0.117 10.8-0.235 21.7-0.355 32.5-3.99 1.1-7.83 1.18-11.9 1.2-0.764 0.0057-1.53 0.0114-2.32 0.0173-1.61 0.00942-3.22 0.016-4.83 0.0198-2.47 0.00975-4.93 0.0408-7.4 0.0723-1.57 0.00653-3.13 0.0118-4.7 0.0156-0.738 0.0123-1.48 0.0247-2.24 0.0374-2.91-0.0127-5.05-0.0332-7.54-1.61-1.3-2.22-1.38-3.63-1.32-6.21 0.00967-0.848 0.0193-1.7 0.0293-2.57 0.0251-0.881 0.0503-1.76 0.0762-2.67 0.0203-1.34 0.0203-1.34 0.041-2.71 0.0353-2.2 0.0847-4.4 0.146-6.61-4.14 0.813-5.27 2.26-7.75 5.69-8.46 11-20.3 17.2-34.1 19.1-15.1 1.56-30.4 1-44.2-5.77-0.632-0.298-1.26-0.596-1.91-0.902-2.05-0.988-4.07-2.03-6.09-3.1-0.65-0.324-1.3-0.647-1.97-0.98-7.84-4.31-14.4-11.6-16.9-20.3-0.191-0.812-0.382-1.62-0.578-2.46-0.527-2.2-1.24-4.1-2.17-6.16-4.64-10.5-3.12-23.5 0.625-34.1 3.89-9.31 8.36-16.6 17-22h2c0.495-1.49 0.495-1.49 1-3 3.49-1.75 6.07-3 10-3v-2c12.9-4.67 26.8-8.12 40.6-7.97 2.65-0.0321 4.78-0.757 7.3-1.53 5.39-1.28 11.1-1.24 16.7-1.53 6.22-0.432 10.4-1.19 15.4-4.96 3.36-4.51 2.54-10.7 2-16-1.43-5.24-3.14-9.18-7-13v-2c-0.804-0.155-0.804-0.155-1.62-0.312-2.38-0.688-2.38-0.688-5.25-2.19-9.35-4.49-22.4-3.53-32.1-0.5-9.92 3.83-16.2 9.58-21 19-8.58 0.278-16.6-0.565-25-2-2.6-0.383-5.21-0.758-7.81-1.12-1.18-0.168-2.36-0.335-3.58-0.508-1.29-0.182-1.29-0.182-2.61-0.367-1.58-5.93 0.241-9.7 3-15 3.77-5.86 7.86-11.3 13-16 0.579-0.62 1.16-1.24 1.75-1.88 14.3-13.5 35.1-18.5 54.2-19.3z" fill="#A509FB"/>
<path transform="translate(793 144)" d="m0 0c15.1-0.423 31.2 3.23 42.9 13.3 0.63 0.601 1.26 1.2 1.91 1.82 0.599 0.559 1.2 1.12 1.82 1.7 18 18.7 18.9 44.1 18.7 68.5-0.0317 3.59-0.0342 7.19-0.0401 10.8-0.0154 6.77-0.0562 13.5-0.107 20.3-0.0563 7.72-0.0835 15.4-0.108 23.2-0.0519 15.9-0.14 31.7-0.252 47.6-1.58 0.165-3.17 0.328-4.75 0.491-0.882 0.0911-1.76 0.182-2.67 0.276-5.46 0.494-10.9 0.419-16.4 0.418-2.12 0.00222-4.25 0.0205-6.37 0.0393-1.36 0.00293-2.71 0.00492-4.07 0.00586-1.22 0.00411-2.44 0.00822-3.7 0.0125-3.03-0.243-3.03-0.243-6.03-2.24-0.402-2.62-0.602-5-0.679-7.64-0.0332-0.795-0.0663-1.59-0.1-2.41-0.354-9.51-0.357-19-0.359-28.5-0.0044-5.66-0.0355-11.3-0.0611-17-0.0304-7.15-0.0531-14.3-0.0513-21.4 7.9e-4 -5.83-0.0227-11.7-0.0619-17.5-0.0104-2.2-0.012-4.41-0.00435-6.61 0.194-20.2 0.194-20.2-9.43-37.4-1.38-1.21-2.8-2.38-4.25-3.5-0.668-0.514-1.34-1.03-2.02-1.56-9.28-6.09-20.7-4.85-31.1-3.21-3.07 0.827-5.21 2.01-7.84 3.77-0.669 0.414-1.34 0.828-2.03 1.25-7.03 4.82-11.3 11.7-14 19.7-1.02 6.5-1.16 12.9-1.19 19.4-0.00829 1.12-0.0166 2.24-0.0251 3.4-0.0173 2.42-0.0325 4.84-0.0458 7.27-0.0211 3.83-0.0481 7.66-0.0767 11.5-0.0646 8.81-0.121 17.6-0.176 26.4-0.0549 8.73-0.113 17.5-0.179 26.2-0.0267 3.78-0.0474 7.56-0.068 11.3-0.0166 2.3-0.0335 4.6-0.0507 6.9-0.00418 1.06-0.00837 2.12-0.0127 3.21-0.00834 0.957-0.0167 1.91-0.0253 2.9-0.00515 0.837-0.0103 1.67-0.0156 2.54-0.136 1.9-0.136 1.9-1.14 2.9-2.92 0.126-5.82 0.189-8.74 0.203-1.32 0.00855-1.32 0.00855-2.66 0.0173-1.86 0.00947-3.73 0.016-5.59 0.0198-2.86 0.0097-5.71 0.0407-8.57 0.0723-1.81 0.00653-3.62 0.0118-5.43 0.0156-0.856 0.0123-1.71 0.0247-2.59 0.0374-0.797-3e-3 -1.59-6e-3 -2.42-0.00909-1.05 0.00547-1.05 0.00547-2.12 0.011-2.57-0.504-3.3-1.28-4.87-3.37-0.385-2.81-0.385-2.81-0.399-6.29-0.00665-0.641-0.0133-1.28-0.0201-1.94-0.0187-2.15-0.016-4.31-0.0135-6.46-0.00902-1.54-0.0193-3.09-0.0309-4.63-0.0277-4.2-0.0369-8.4-0.0429-12.6-0.00939-4.41-0.0356-8.82-0.06-13.2-0.0438-8.38-0.0722-16.8-0.0953-25.1-0.0268-9.45-0.0708-18.9-0.116-28.4-0.157-32.8-0.157-32.8-0.187-48.9-0.00288-1.46-0.0058-2.92-0.00875-4.38-0.00138-0.696-0.00275-1.39-0.00417-2.11-0.0108-4.28-0.0466-8.56-0.0989-12.8-0.00928-0.999-0.0186-2-0.0281-3.03-0.0172-1.78-0.042-3.55-0.0764-5.33-0.015-1.92 0.0721-3.84 0.182-5.76 2.63-2.63 4.54-2.26 8.12-2.3 1.25 0.00137 1.25 0.00137 2.53 0.00276 0.858-0.00429 1.72-0.00857 2.6-0.013 1.82-0.00575 3.63-0.00624 5.45-0.00191 2.79 0.00316 5.57-0.0203 8.35-0.0457 1.76-0.00227 3.52-0.00298 5.29-0.00195 0.836-0.00921 1.67-0.0184 2.53-0.0279 2.35 0.0189 2.35 0.0189 6.12 0.391 2.33 3.49 2.23 4.8 2.16 8.91-0.0164 1.73-0.0164 1.73-0.0332 3.5-0.0213 1.21-0.0425 2.41-0.0645 3.65-0.0343 2.39-0.0645 4.77-0.0898 7.16-0.018 1.06-0.0359 2.12-0.0544 3.21-0.0977 2.56-0.0977 2.56 1.08 4.57 0.531-0.808 1.06-1.62 1.61-2.45 0.706-1.07 1.41-2.14 2.14-3.24 0.696-1.06 1.39-2.11 2.11-3.2 7.43-10.8 16.9-16.7 29.1-21.1 0.998-0.361 2-0.722 3.02-1.09 5.29-1.61 10.7-1.72 16.2-2.04z" fill="#FB21B3"/>
<path transform="translate(1061 147)" d="m0 0c0.88 0.00719 1.76 0.0144 2.67 0.0218 0.902 4.58e-4 1.8 9.16e-4 2.73 0.00139 1.91 0.00302 3.82 0.0109 5.73 0.0233 2.93 0.0182 5.86 0.0205 8.79 0.0203 1.85 0.00492 3.71 0.0107 5.56 0.0176 0.88 0.00111 1.76 0.00223 2.67 0.00337 6.19 0.0485 6.19 0.0485 8.43 1.16 0.0247 5.94 0.0428 11.9 0.0549 17.8 0.00504 2.02 0.0119 4.05 0.0205 6.07 0.0121 2.9 0.0178 5.81 0.0222 8.71 0.00516 0.908 0.0103 1.82 0.0156 2.75 7.55e-5 0.841 1.51e-4 1.68 2.29e-4 2.55 0.00222 0.742 0.00444 1.48 0.00673 2.25-0.12 1.83-0.12 1.83-1.12 3.83-0.0983 2.14-0.131 4.28-0.133 6.42-0.00132 0.648-0.00264 1.3-4e-3 1.96-0.00192 2.12 0.00444 4.24 0.0118 6.36 8.86e-4 0.722 0.00177 1.44 0.00269 2.19 0.0143 9.94 0.222 19.9 0.769 29.8 0.283 5.19 0.369 10.3 0.291 15.5-0.0382 11.6 2.43 22 10.1 31.2 8.44 8.14 18.5 9.57 30 9.57 3.74-0.555 3.74-0.555 7-2 0.717-0.269 1.43-0.539 2.17-0.816 8.45-3.39 15.5-8.94 19.3-17.4 0.409-1.15 0.817-2.3 1.24-3.49 0.625-1.71 0.625-1.71 1.26-3.45 2.42-7.91 2.19-16.4 2.13-24.6-0.00307-1.02-0.00613-2.04-0.00929-3.1-0.00711-2.2-0.0165-4.4-0.0279-6.6-0.0175-3.48-0.0277-6.96-0.0359-10.4-0.0244-9.89-0.0602-19.8-0.105-29.7-0.0267-6.06-0.0438-12.1-0.0549-18.2-0.00622-2.31-0.0162-4.62-0.0301-6.93-0.0191-3.21-0.0261-6.43-0.0303-9.64-0.00876-0.959-0.0175-1.92-0.0266-2.91 0.0013-0.872 0.00261-1.74 0.00395-2.64-0.00471-1.14-0.00471-1.14-0.00952-2.3 0.243-1.86 0.243-1.86 2.24-3.86 2.99-0.2 5.88-0.28 8.88-0.266 1.32-0.00287 1.32-0.00287 2.67-0.0058 1.86-0.00136 3.73 0.00234 5.59 0.0107 2.86 0.0107 5.71 1.06e-4 8.57-0.0127 1.81 0.00132 3.61 0.00388 5.42 0.00781 0.858-0.00405 1.72-0.0081 2.6-0.0123 6.04 0.048 6.04 0.048 8.27 2.28 0.195 2.42 0.265 4.72 0.247 7.14 0.00241 0.744 0.00483 1.49 0.00732 2.26 0.00566 2.51-0.00304 5.01-0.0116 7.52 0.00107 1.79 0.00301 3.58 0.00575 5.38 0.00486 4.88-0.00282 9.75-0.013 14.6-0.00876 5.09-0.00702 10.2-0.00664 15.3-9.37e-4 8.55-0.00963 17.1-0.0233 25.7-0.0157 9.9-0.021 19.8-0.0203 29.7 6.09e-4 9.51-0.00449 19-0.0128 28.5-0.00354 4.05-0.00536 8.11-0.00589 12.2-1e-3 4.77-0.00708 9.54-0.0172 14.3-0.00293 1.76-0.00415 3.51-0.00357 5.27 4.87e-4 2.39-0.00513 4.77-0.0124 7.16 0.00155 0.704 0.0031 1.41 0.00469 2.13-0.0242 4.77-0.0242 4.77-1.14 5.88-2.61 0.113-5.19 0.164-7.8 0.168-0.786 0.00333-1.57 0.00666-2.38 0.0101-1.67 0.00507-3.34 0.00741-5 0.00725-2.54 0.00218-5.09 0.0203-7.63 0.0393-1.62 0.00294-3.24 0.00492-4.86 0.00586-0.759 0.00719-1.52 0.0144-2.3 0.0218-4.41-0.0189-6.79-0.558-11-2.25-0.33-8.91-0.66-17.8-1-27-4.04 2.02-4.81 2.75-7.06 6.38-4.17 6.61-4.17 6.61-5.94 8.62h-3c-0.33 0.99-0.66 1.98-1 3-1.97 1.48-3.89 2.74-6 4-0.617 0.405-1.23 0.81-1.87 1.23-13.2 8.12-29.8 9.94-44.9 7.09-1.41-0.397-2.8-0.84-4.19-1.31-1.01-0.33-2.03-0.66-3.07-1-7.55-2.66-13.7-6.07-19.9-11-0.624-0.437-1.25-0.874-1.89-1.32-11.9-8.91-17.4-25.9-19.6-40.1-0.684-5.65-0.623-11.3-0.621-17-0.00336-1.22-0.00672-2.43-0.0102-3.69-0.00784-3.32-0.0112-6.63-0.0118-9.95-7.13e-4 -2.07-0.00285-4.14-0.0055-6.22-0.00923-7.23-0.0133-14.5-0.0125-21.7 6.03e-4 -6.74-0.01-13.5-0.0257-20.2-0.0131-5.79-0.0184-11.6-0.0178-17.4 2.55e-4 -3.46-0.00261-6.92-0.0132-10.4-0.0114-3.85-0.00695-7.69-8.95e-4 -11.5-0.00562-1.15-0.0112-2.3-0.017-3.48 0.00629-1.56 0.00629-1.56 0.0127-3.16-5.45e-4 -0.91-0.00109-1.82-0.00165-2.76 0.591-5.17 4.38-4.41 8.68-4.43z" fill="#D61CF4"/>
<path transform="translate(976 154)" d="m0 0c6.73 4.91 11.4 11 15.9 17.9 1.57 2.77 1.57 2.77 4.75 3.5v-28c5.8-0.0229 11.6-0.0428 17.4-0.0549 1.97-0.00504 3.95-0.0119 5.92-0.0205 2.83-0.0121 5.67-0.0178 8.5-0.0222 0.887-0.00516 1.77-0.0103 2.69-0.0156 6.25-5.75e-4 6.25-5.75e-4 8.48 1.11 0.0468 25.4 0.082 50.8 0.104 76.1 0.0103 11.8 0.0244 23.6 0.0473 35.4 0.02 10.3 0.0328 20.5 0.0373 30.8 0.0026 5.44 0.00871 10.9 0.0233 16.3 0.0136 5.12 0.0178 10.2 0.0148 15.4 5.48e-4 1.88 0.0045 3.75 0.0122 5.63 0.071 18.2 0.071 18.2-2.24 26.4-0.318 1.13-0.637 2.26-0.965 3.43-0.321 0.953-0.642 1.91-0.973 2.89-0.318 0.966-0.637 1.93-0.965 2.93-1.56 3.93-3.76 7.25-6.1 10.8h-2c-0.66 1.65-1.32 3.3-2 5h-2c-0.247 0.578-0.495 1.15-0.75 1.75-2.84 5.12-7.2 7.61-12.2 10.2-0.779 0.415-1.56 0.83-2.36 1.26-4.72 2.45-9.36 4.49-14.4 6.06-1.46 0.453-2.91 0.94-4.34 1.46-20 7.25-45.6 7.34-65.9 1.22-1.02-0.266-2.04-0.531-3.1-0.805-17.4-4.78-34.4-14.7-43.7-30.7-2.06-4.19-3.23-7.79-3.23-12.5 12.9-3.74 25.7-6.83 39-9 0.387 0.519 0.773 1.04 1.17 1.57 0.521 0.697 1.04 1.39 1.58 2.11 0.51 0.684 1.02 1.37 1.55 2.07 0.562 0.739 1.12 1.48 1.7 2.24 0.92 1.27 0.92 1.27 1.86 2.57 6.33 7.17 17.1 9.72 26.1 11.4 0.812 0.189 1.62 0.379 2.46 0.574 6.65 1.14 12.7-0.211 19.2-1.7 0.883-0.2 1.77-0.4 2.68-0.605 7.04-1.76 13.9-4.11 18.8-9.7 0.434-0.807 0.869-1.61 1.32-2.45 0.679-1.2 0.679-1.2 1.37-2.43 6.86-15.5 4.31-35.1 4.19-51.7-3.8 1.27-4.66 2.89-7.06 6.06-6.3 7.83-12.4 14.2-22.6 15.9-3.7 0.0932-6.84-0.779-10.3-1.94-0.66-0.66-1.32-1.32-2-2 0.99-0.33 1.98-0.66 3-1 0.66-0.99 1.32-1.98 2-3-0.33-0.99-0.66-1.98-1-3 0.33-0.33 0.66-0.66 1-1-1.98-0.99-1.98-0.99-4-2 0.99-0.33 1.98-0.66 3-1h-11c-0.495-2.48-0.495-2.48-1-5-3.57 0.611-6.65 1.64-10 3h-2v-2c-2.31-0.66-4.62-1.32-7-2-1.37-4.28-0.387-6.84 1-11 5.28-0.932 9.63-1.38 14.8 0.438 7.1 2.44 16.1 3.26 23.2 0.25 1.01-0.557 2.02-1.11 3.06-1.69 1.09-0.371 2.19-0.742 3.31-1.12 6.75-2.9 13.6-9.17 16.9-15.8 7.6-19.8 9.99-47 1.8-67.1-1.71-3.6-3.63-6.8-6-10-0.451-0.632-0.902-1.26-1.37-1.91-4.44-5.7-10.7-10.8-17.6-13.1-1.59-0.093-3.19-0.131-4.79-0.133-0.942-0.00129-1.88-0.00258-2.86-0.00391-1.48 0.0058-1.48 0.0058-2.98 0.0117-0.96-0.00387-1.92-0.00773-2.91-0.0117-5.9 0.00801-11.6 0.376-17.5 1.14 0.33-1.65 0.66-3.3 1-5h2v-3c1.32-0.33 2.64-0.66 4-1-0.309-0.928-0.309-0.928-0.625-1.88-0.186-1.05-0.186-1.05-0.375-2.12 0.66-0.66 1.32-1.32 2-2 2.37-2.95 2.37-2.95 2-7h-3c0.33-0.66 0.66-1.32 1-2-4.06-0.774-7.86-1.1-12-1v-2c-5.32-1.08-10.6-2.15-16-3-0.495-1.98-0.495-1.98-1-4 2.33-0.703 4.66-1.36 7-2 1.35-0.396 1.35-0.396 2.73-0.801 18.2-4.87 36.7-3.12 52.6 7.36z" fill="#E121EE"/>
<path transform="translate(914 150)" d="m0 0c0.541 0.226 1.08 0.451 1.64 0.684-0.33 0.66-0.66 1.32-1 2 1.18-0.0928 1.18-0.0928 2.38-0.188 4.83 0.25 9.06 1.67 13.6 3.19v2c1.01-0.186 2.02-0.371 3.06-0.562 3.92-0.435 7.08-0.146 10.9 0.562-0.33 0.66-0.66 1.32-1 2 0.99 0.99 0.99 0.99 2 2-0.33 0.99-0.66 1.98-1 3l2 1c-1.49 0.495-1.49 0.495-3 1l1 2c-0.495 0.433-0.99 0.866-1.5 1.31-1.83 1.68-1.83 1.68-1.5 4.69-1.49 0.495-1.49 0.495-3 1-1.17 1.92-1.17 1.92-2 4-0.33 0.66-0.66 1.32-1 2 1.09-0.16 2.18-0.32 3.3-0.484 5.27-0.655 10.5-0.737 15.8-0.766 1.44-0.0309 1.44-0.0309 2.92-0.0625 10.3-0.0569 16.5 4.5 24 11.3 12.4 13.5 14.5 28.8 14.4 46.6 0.0116 1.31 0.0232 2.63 0.0352 3.98-0.0439 14.7-3.21 29.5-13.5 40.6-5.43 5.33-10.2 8.1-17.6 10.1-2.31 0.429-2.31 0.429-3.37 1.66-8.17 0.606-15.4-0.09-23.3-2.33-3.69-0.91-6.93-0.886-10.7-0.668-0.33 3.3-0.66 6.6-1 10 0.949 0.124 1.9 0.248 2.88 0.375 3.12 0.625 3.12 0.625 5.12 2.62 0.33 0.66 0.66 1.32 1 2 0.814-0.451 0.814-0.451 1.64-0.91 0.715-0.38 1.43-0.761 2.17-1.15 0.708-0.383 1.42-0.766 2.14-1.16 2.04-0.777 2.04-0.777 5.04 0.223v4c0.771-0.0232 1.54-0.0464 2.34-0.0703 1-0.018 2.01-0.0361 3.04-0.0547 0.998-0.0232 2-0.0464 3.02-0.0703 2.6 0.195 2.6 0.195 4.6 2.2-0.165 0.639-0.33 1.28-0.5 1.94-0.165 0.681-0.33 1.36-0.5 2.06 0.66 0.99 1.32 1.98 2 3h-2c-0.66 0.99-1.32 1.98-2 3l-1 1c1.33 0.345 2.66 0.675 4 1 0.784 0.206 1.57 0.413 2.38 0.625 3.09 0.441 5.59 0.0102 8.62-0.625-1.46 2.92-3.74 3.28-6.69 4.32-3.75 1.1-7.49 1.56-11.4 1.93-1.24 0.121-1.24 0.121-2.5 0.245-22.9 1.99-41.1-4.66-59.6-17.7-12.4-12.2-23-30.6-23.6-48.4-0.163-2.49-0.163-2.49-1.25-5.28-1.7-5.69-1.24-11.7-1.18-17.6 6.45e-4 -1.2 0.00129-2.4 0.00195-3.63 0.0334-6.7 0.389-12.9 1.71-19.5 0.512-2.39 0.512-2.39 0.727-4.87 2.27-19.9 14.5-39 29.5-51.9 2.29-1.65 2.29-1.65 4.29-1.65v-2c1.74-1.04 3.49-2.05 5.25-3.06 0.975-0.568 1.95-1.14 2.95-1.72 2.8-1.21 2.8-1.21 5.16-0.898z" fill="#EB25E7"/>
<path transform="translate(260,39)" d="m0 0c8.97 0.626 17.4 4.39 25 9 2.68 1.35 5.4 2.61 8.12 3.88 0.756 0.353 1.51 0.706 2.29 1.07 5.84 2.72 11.7 5.41 17.6 8.06 1.83 0.833 3.67 1.67 5.5 2.5 0.908 0.412 1.82 0.825 2.75 1.25 8.25 3.75 8.25 3.75 11 5.01 1.78 0.809 3.56 1.62 5.34 2.42 5.92 2.68 11.8 5.41 17.7 8.16 4.16 1.95 8.33 3.87 12.5 5.79 5.46 2.51 10.8 5.15 16.2 7.88 0.731 0.335 1.46 0.67 2.21 1.02 1.79 0.984 1.79 0.984 2.79 2.98 0.439 7.67-0.205 15.4-0.77 23-0.0806 1.14-0.161 2.28-0.244 3.45-0.173 2.44-0.348 4.88-0.524 7.33-0.47 6.53-0.927 13.1-1.38 19.6-0.0463 0.661-0.0927 1.32-0.14 2-0.907 12.9-1.72 25.9-2.5 38.8-0.239 3.97-0.479 7.95-0.719 11.9-0.0878 1.46-0.0878 1.46-0.177 2.94-3.27 54-3.27 54-5.54 78.9h-3v-3h-2c-3.53-6.78-6.61-13.7-9.59-20.7-1.66-3.84-3.48-7.55-5.41-11.3-6.18-12.1-11.8-24.4-17-37-2.26-5.39-4.8-10.6-7.44-15.8-8.18-16.2-15.7-32.7-22.9-49.3-2.27-5.14-4.71-10.2-7.29-15.2-1.57-3.17-2.95-6.41-4.32-9.68-1.18-2.77-2.37-5.54-3.56-8.31-0.304-0.715-0.607-1.43-0.92-2.17-1.75-4.09-1.75-4.09-4.52-7.52-0.609-1.4-1.16-2.82-1.69-4.25-1.69-4.37-3.64-8.57-5.75-12.8-0.453-0.897-0.453-0.897-0.916-1.81-1.36-2.68-2.73-5.35-4.1-8.02-2.16-4.25-4.07-8.42-5.67-12.9-1.14-2.94-2.48-5.77-3.81-8.63-7.06-15.1-7.06-15.1-7.06-18.6z" fill="#FC1B88"/>
<path transform="translate(175,39)" d="m0 0c-0.58 4.76-1.99 8.69-4 13-0.654 1.43-0.654 1.43-1.32 2.88-1.02 2.23-2.05 4.45-3.08 6.67-1.02 2.2-2.03 4.41-3.04 6.62-2.77 6.08-5.67 12.1-8.68 18-2.56 5.05-4.87 10.1-6.88 15.4-1.61 3.94-3.58 7.7-5.53 11.5-1.62 3.27-3.04 6.6-4.46 9.96-2.29 5.02-4.65 10-7 15-0.413 0.878-0.826 1.76-1.25 2.66-1.33 2.82-2.66 5.64-4 8.46-0.636 1.35-0.636 1.35-1.29 2.73-1.61 3.38-3.18 6.69-5.14 9.88-2.1 3.58-3.07 7.47-4.27 11.4-1.06 2.84-1.06 2.84-2.45 4.69-2.4 3.21-3.78 6.79-5.36 10.5-0.706 1.62-1.41 3.23-2.12 4.84-0.354 0.81-0.709 1.62-1.07 2.45-1.58 3.59-3.22 7.15-4.87 10.7l-1.64 3.55c-1.54 3.14-1.54 3.14-3.13 5.78-1.34 2.24-2.26 4.35-3.16 6.8-1.68 4.33-3.65 8.48-5.75 12.6-3.41 6.72-6.55 13.5-9.25 20.5-2.12 5.38-4.71 10.5-7.34 15.6-2.15 4.2-4.09 8.44-5.91 12.8h-4c-0.334-2.33-0.667-4.67-1-7-0.165-1.13-0.33-2.25-0.5-3.41-1.41-10.3-1.94-20.5-2.35-30.9-0.291-7.15-0.621-14.3-0.964-21.4-0.0824-1.75-0.162-3.49-0.24-5.24-0.371-8.37-0.82-16.7-1.95-25-1.18-8.79-1.59-17.6-1.95-26.4-0.117-2.85-0.241-5.7-0.368-8.55-0.343-7.78-0.667-15.6-0.961-23.4-0.33-8.49-0.745-16.7-2.32-25.1-0.448-2.96-0.596-5.67-0.402-8.66 3.07-4.12 6.08-5.46 10.8-7.16 3.59-1.38 6.96-3.14 10.4-4.9 4.22-2.16 8.39-4.21 12.8-5.94 2.34-1.07 4.67-2.15 7-3.25 1.34-0.63 2.69-1.26 4.03-1.89 1-0.471 1-0.471 2.03-0.951 2.81-1.31 5.62-2.61 8.44-3.91 4.72-2.17 9.42-4.36 14.1-6.56 4.24-1.98 8.48-3.95 12.8-5.88 3.9-1.76 7.77-3.57 11.6-5.41 7.22-3.42 14.5-6.74 21.8-9.9 2.51-1.08 4.98-2.15 7.38-3.45 1.8-0.805 1.8-0.805 5.8-0.805z" fill="#FB0406"/>
<path transform="translate(194 302)" d="m0 0c2.15 0.0036 4.3 0.0052 6.45 0.00626 29.4 0.0179 58.7 0.474 88.1 1.12 0.385 0.904 0.771 1.81 1.17 2.74 2.92 6.85 5.89 13.7 8.96 20.4 2.92 6.51 5.61 13 7.88 19.8-3.7 4.34-7.74 6.63-12.8 9.26-3.69 1.99-7.27 4.12-10.9 6.3-5.4 3.27-10.8 6.42-16.4 9.44-1.46 0.811-2.92 1.62-4.38 2.44-3.3 1.84-6.62 3.64-9.94 5.44-5.97 3.25-11.8 6.66-17.7 10.1-0.839 0.496-1.68 0.993-2.54 1.5-1.66 1.01-3.3 2.06-4.92 3.14-1.22 0.797-1.22 0.797-2.47 1.61-0.813 0.541-1.63 1.08-2.46 1.64-3.4 1.45-5.06 1.15-8.6 0.109-3.08-1.64-3.08-1.64-6.25-3.69-1.15-0.731-2.3-1.46-3.45-2.19-1.09-0.7-2.18-1.4-3.3-2.12-5.24-3.28-10.5-6.29-16.1-9-4.42-2.17-8.43-4.57-12.5-7.37-7.15-4.74-14.7-8.85-22.5-12.6-4.74-2.33-9.23-4.93-13.7-7.75-0.919-0.571-0.919-0.571-1.86-1.15-4.33-2.8-4.33-2.8-5.46-6.16 0.633-2.17 0.633-2.17 1.7-4.68 0.384-0.922 0.768-1.84 1.16-2.79 0.627-1.46 0.627-1.46 1.27-2.96 0.417-0.994 0.833-1.99 1.26-3.01 0.826-1.97 1.66-3.94 2.49-5.9 1.35-3.19 2.68-6.39 4-9.59 0.375-0.892 0.75-1.78 1.14-2.7 0.639-1.53 1.27-3.06 1.88-4.59 1.89-4.66 1.89-4.66 4.11-5.77 2.41-0.246 4.8-0.425 7.21-0.555 0.783-0.042 1.57-0.0841 2.37-0.127 12.3-0.578 24.6-0.47 36.8-0.446z" fill="#FD062B"/>
<path transform="translate(566 83.7)" d="m0 0c1.05 0.00187 2.1 0.00375 3.19 0.00568 2.22 0.00671 4.43 0.0206 6.65 0.0412 3.4 0.0312 6.8 0.041 10.2 0.0469 2.15 0.00917 4.31 0.0195 6.46 0.0312 1.53 0.00637 1.53 0.00637 3.09 0.0129 0.945 0.00961 1.89 0.0192 2.86 0.0291 0.831 0.00683 1.66 0.0137 2.52 0.0207 2.15 0.14 2.15 0.14 5.15 1.14 1.07 2.26 1.93 4.4 2.75 6.75 0.379 1.05 0.379 1.05 0.765 2.12 3.61 10.1 6.92 20.3 10.3 30.5 1.61 4.89 3.34 9.71 5.17 14.5 0.529 1.4 1.06 2.8 1.59 4.2 0.254 0.672 0.507 1.34 0.769 2.04 1.61 4.28 3.16 8.58 4.71 12.9 0.447 1.23 0.895 2.45 1.36 3.71 0.465 1.28 0.93 2.57 1.39 3.85 0.428 1.18 0.856 2.35 1.3 3.57 0.953 2.87 0.953 2.87 0.953 4.87-1.49 0.495-1.49 0.495-3 1-0.33 0.66-0.66 1.32-1 2-2.03 0.225-4.05 0.444-6.09 0.559-2.31 0.305-2.31 0.305-3.91 3.44-1 1-1 1-3.72 1.1-1.65-0.0174-1.65-0.0174-3.34-0.0352-1.1-0.00902-2.21-0.018-3.35-0.0273-0.855-0.0116-1.71-0.0232-2.59-0.0352-0.99 1.98-0.99 1.98-2 4h-5v-2h-3c-1.85 3.7-2.15 6.04-1 10 0.7 1.85 1.4 3.69 2.1 5.54 1.87 5.14 3.46 10.4 5.08 15.6 0.368 1.15 0.736 2.31 1.12 3.5 0.347 1.12 0.695 2.24 1.05 3.39 0.316 1.01 0.632 2.01 0.958 3.05 0.687 2.94 0.687 2.94 0.687 8.94h-63c-2.56-5.12 1.7-14.3 3.44-19.6 0.812-2.36 1.68-4.67 2.61-6.98 2.76-7.06 5.45-14.9 2.96-22.4-1 0.0232-2 0.0464-3.04 0.0703-1.34 0.0188-2.68 0.037-4.03 0.0547-1.97 0.0348-1.97 0.0348-3.97 0.0703-4.16-0.205-7.1-0.709-11-2.2-0.33-0.99-0.66-1.98-1-3-0.33-0.66-0.66-1.32-1-2-0.969-0.248-1.94-0.495-2.94-0.75-3.06-1.25-3.06-1.25-4.44-4.38-0.206-0.949-0.413-1.9-0.625-2.88-0.99 0.495-0.99 0.495-2 1-1.12-3.3-0.932-4.86 0.5-8 2.26-5.28 4.18-10.6 6.06-16.1 0.293-0.839 0.585-1.68 0.887-2.54 1.4-4.04 2.78-8.08 4.11-12.1 1.16-3.51 2.51-6.87 4.01-10.3 1.84-4.33 3.09-8.4 3.99-13 0.549-2.44 1.48-4.64 2.54-6.9 0.756-1.74 1.41-3.52 2.04-5.31 0.411-1.17 0.822-2.33 1.25-3.53 0.379-1.11 0.758-2.22 1.15-3.36 3.67-7.18 10.2-6.31 17.4-6.22z" fill="#FB31D5"/>
<path transform="translate(1237 84.7)" d="m0 0c0.861 0.00719 1.72 0.0144 2.61 0.0218 0.883 4.58e-4 1.77 9.16e-4 2.67 0.00139 1.87 0.00302 3.73 0.0109 5.6 0.0233 2.87 0.0183 5.74 0.0205 8.61 0.0203 1.81 0.00491 3.62 0.0107 5.43 0.0176 0.864 0.00111 1.73 0.00223 2.62 0.00337 6.04 0.0486 6.04 0.0486 7.16 1.16 0.244 3.1 0.423 6.17 0.555 9.27 0.042 0.948 0.0841 1.9 0.127 2.87 0.406 9.85 0.469 19.7 0.443 29.5-0.00133 1.49-0.00133 1.49-0.00269 3.01-0.0137 13.6-0.145 27.2-0.349 40.8-0.0108 0.721-0.0215 1.44-0.0326 2.18-0.0907 6.05-0.182 12.1-0.277 18.2-0.315 20.2-0.506 40.4-0.495 60.7 5.09e-4 0.986 0.00102 1.97 0.00154 2.99 0.00651 9.71 0.0241 19.4 0.0578 29.1 0.0118 3.6 0.0198 7.21 0.0274 10.8 0.00679 2.45 0.0194 4.9 0.0323 7.35 0.0316 9.77-0.352 19.4-1.09 29.2-5.5 0.0494-11 0.0857-16.5 0.11-1.87 0.0101-3.74 0.0237-5.61 0.041-2.69 0.0242-5.38 0.0356-8.06 0.0444-0.838 0.0103-1.68 0.0206-2.54 0.0313-5.94 0.00115-5.94 0.00115-9.29-2.23-0.43-1.82-0.43-1.82-0.507-4.06-0.0523-1.27-0.0523-1.27-0.106-2.57-0.0329-1.39-0.0329-1.39-0.0666-2.82-0.0331-0.979-0.0662-1.96-0.1-2.97-0.37-12.2-0.364-24.3-0.353-36.5-0.0011-2.59-0.00254-5.17-0.00427-7.76-0.00338-6.89 0.00132-13.8 0.00811-20.7 0.0042-4.28 0.00649-8.55 0.00867-12.8 0.0209-37.1 0.121-74.2 0.468-111 0.0271-3.02 0.0507-6.03 0.0734-9.05 0.0359-4.66 0.0818-9.33 0.137-14 0.0185-1.69 0.0337-3.37 0.0454-5.06 0.0166-2.27 0.0454-4.54 0.0778-6.81 0.0133-1.26 0.0266-2.52 0.0404-3.82 0.542-5.67 3.61-5.14 8.58-5.16z" fill="#BD11F6"/>
<path transform="translate(1557,145)" d="m0 0c1.61 3.23 1.12 6.75 1.1 10.3-0.00141 0.818-0.00283 1.64-0.00429 2.48-0.00561 2.62-0.0182 5.24-0.0309 7.86-0.00501 1.77-0.00958 3.55-0.0137 5.32-0.011 4.35-0.0283 8.7-0.0488 13.1-3.99 1.16-6.88 0.615-11 0-3.48-0.219-6.95-0.275-10.4-0.312-0.903-0.029-1.81-0.058-2.74-0.0879-6.3-0.0593-10.5 1.14-15.8 4.4-0.921 0.498-0.921 0.498-1.86 1.01-10.6 5.77-15.3 13.8-19.2 25-1.39 4.94-1.19 9.86-1.13 15 0.00679 1.62 0.00679 1.62 0.0137 3.27 0.0109 2.33 0.0264 4.67 0.046 7 0.0302 3.69 0.047 7.38 0.0601 11.1 0.0397 10.5 0.105 21 0.176 31.5 0.0426 6.42 0.0708 12.8 0.0903 19.3 0.0106 2.45 0.027 4.9 0.0493 7.34 0.0311 3.41 0.0439 6.83 0.0528 10.2 0.0139 1.02 0.0279 2.03 0.0422 3.08-0.00185 1.39-0.00185 1.39-0.00374 2.81 0.00536 0.807 0.0107 1.61 0.0163 2.44-0.462 2.65-1.19 3.52-3.36 5.08-2.99 0.286-5.77 0.396-8.75 0.363-1.28 7.48e-4 -1.28 7.48e-4 -2.6 0.00151-1.81-0.00234-3.62-0.0121-5.43-0.0286-2.78-0.0236-5.55-0.0206-8.33-0.0139-1.76-0.00558-3.51-0.0127-5.27-0.0215-1.25 0.00137-1.25 0.00137-2.53 0.00276-5.86-0.0725-5.86-0.0725-8.1-2.3-0.197-2.4-0.269-4.69-0.254-7.1-0.00468-1.11-0.00468-1.11-0.00945-2.24-0.00801-2.49-0.00164-4.98 0.00463-7.47-0.00271-1.78-0.00627-3.56-0.0106-5.34-0.00914-4.84-0.00557-9.69 7.58e-4 -14.5 0.00505-5.06 3.71e-4 -10.1-0.00277-15.2-0.00364-8.5 0.00117-17 0.0107-25.5 0.0109-9.84 0.00736-19.7-0.00365-29.5-0.00906-8.44-0.0104-16.9-0.00512-25.3 0.00312-5.04 0.00352-10.1-0.00307-15.1-0.00576-4.74-0.0018-9.48 0.00979-14.2 0.00265-1.74 0.00187-3.49-0.00253-5.23-0.00543-2.37 0.00135-4.75 0.0114-7.12-0.00446-0.697-0.00892-1.39-0.0135-2.11 0.0392-4.76 0.0392-4.76 2.27-6.99 2.94-0.175 5.79-0.231 8.73-0.195 1.29 0.00424 1.29 0.00424 2.61 0.00858 2.76 0.0112 5.52 0.0363 8.28 0.0617 1.87 0.01 3.74 0.0192 5.61 0.0273 4.59 0.0221 9.18 0.0566 13.8 0.0977 1.39 3.78 2.24 6.9 2.16 10.9-0.0164 1.32-0.0164 1.32-0.0332 2.66-0.0213 0.899-0.0425 1.8-0.0645 2.72-0.0343 1.81-0.0644 3.62-0.0898 5.43-0.018 0.794-0.0359 1.59-0.0544 2.41-0.127 1.87-0.127 1.87 1.08 2.85 2.29-2.7 4.15-5.28 5.88-8.38 6.45-11.4 16.9-17.4 29.4-21 7.91-1.38 18-2.21 25.7 0.352z" fill="#9809FD"/>
<path transform="translate(1336,226)" d="m0 0v3h3v2h11c0.99 1.98 0.99 1.98 2 4l2 1c0.33-0.66 0.66-1.32 1-2v4h-2c0.99 0.99 0.99 0.99 2 2h-3c1.27 4.42 1.27 4.42 4 8 2.89 0.464 2.89 0.464 6.12 0.625 1.1 0.0748 2.19 0.15 3.32 0.227 1.26 0.0735 1.26 0.0735 2.55 0.148v-2c0.704 0.107 1.41 0.214 2.13 0.324 7.56 0.918 13.8 0.138 21.1-1.73 0.904-0.196 1.81-0.392 2.74-0.594 2.54 2.54 1.19 9.53 1.19 12.9 0.0122 1.1 0.0245 2.21 0.0371 3.35 0.0108 6.11-0.382 11.7-1.79 17.7-0.535 2.17-0.535 2.17-0.431 5.02-0.812 2.62-0.812 2.62-2 5-1.48 0.495-1.48 0.495-3 1 0.495 0.773 0.495 0.773 1 1.56 1.32 3.22 1.13 5.99 1 9.44h-2c-0.495 1.49-0.495 1.49-1 3 0.66 0.33 1.32 0.66 2 1-0.495 1.49-0.495 1.49-1 3h8c0.495-1.49 0.495-1.49 1-3 0.33 0.99 0.66 1.98 1 3-2 2-2 2-5 3-1.29 1.52-2.51 3.09-3.69 4.69-8.54 10.9-20.4 17.2-34.1 19.1-15.1 1.56-30.4 1-44.2-5.77-0.632-0.298-1.26-0.596-1.91-0.902-2.05-0.988-4.07-2.03-6.09-3.1-0.65-0.324-1.3-0.647-1.97-0.98-7.84-4.31-14.4-11.6-16.9-20.3-0.191-0.812-0.382-1.62-0.578-2.46-0.527-2.2-1.24-4.1-2.17-6.16-4.64-10.5-3.12-23.5 0.625-34.1 3.89-9.31 8.36-16.6 17-22h2c0.33-0.99 0.66-1.98 1-3 3.49-1.75 6.07-3 10-3v-2c2.5-0.848 5-1.68 7.5-2.5 0.696-0.238 1.39-0.477 2.11-0.723 4.98-1.61 9.16-2.01 14.4-1.78z" fill="#B60CF8"/>
<path transform="translate(793 144)" d="m0 0c15.1-0.525 31.3 3.24 42.9 13.3 0.63 0.601 1.26 1.2 1.91 1.82 0.599 0.559 1.2 1.12 1.82 1.7 18 18.7 18.9 44.1 18.7 68.5-0.0317 3.59-0.0342 7.19-0.0401 10.8-0.0154 6.77-0.0562 13.5-0.107 20.3-0.0563 7.72-0.0835 15.4-0.108 23.2-0.0519 15.9-0.14 31.7-0.252 47.6-1.58 0.165-3.17 0.328-4.75 0.491-1.32 0.137-1.32 0.137-2.67 0.276-5.46 0.494-10.9 0.419-16.4 0.418-2.12 0.00222-4.25 0.0205-6.37 0.0393-1.36 0.00293-2.71 0.00492-4.07 0.00586-1.22 0.00411-2.44 0.00822-3.7 0.0125-3.03-0.243-3.03-0.243-6.03-2.24-0.402-2.62-0.602-5-0.679-7.64-0.0332-0.795-0.0663-1.59-0.1-2.41-0.354-9.51-0.357-19-0.359-28.5-0.0044-5.66-0.0355-11.3-0.0611-17-0.0304-7.15-0.0531-14.3-0.0513-21.4 7.9e-4 -5.83-0.0227-11.7-0.0619-17.5-0.0104-2.2-0.012-4.41-0.00435-6.61 0.193-20.2 0.193-20.2-9.43-37.4-7.76-6.86-15-9.34-25.2-10.5v-3h2c0.33-3.63 0.66-7.26 1-11h2c0.33 0.99 0.66 1.98 1 3h2c-0.33-2.64-0.66-5.28-1-8h-4c-0.268 1.13-0.536 2.27-0.812 3.44-0.392 1.18-0.784 2.35-1.19 3.56-0.99 0.33-1.98 0.66-3 1 0.495-4.45 0.495-4.45 1-9-1.32-0.33-2.64-0.66-4-1-0.33-0.99-0.66-1.98-1-3-1.07 0.0412-2.14 0.0825-3.25 0.125-3.41-0.114-4.96-0.338-7.75-2.12h3c-0.33-1.32-0.66-2.64-1-4 10.3-3.94 19.2-6.54 30.2-7.11z" fill="#F328E0"/>
<path transform="translate(1179 147)" d="m0 0c1.29 0.00607 1.29 0.00607 2.6 0.0123 1.32-0.00287 1.32-0.00287 2.67-0.0058 1.86-0.00136 3.73 0.00234 5.59 0.0107 2.86 0.0107 5.71 1.06e-4 8.57-0.0127 1.81 0.00132 3.61 0.00388 5.42 0.00781 0.858-0.00405 1.72-0.0081 2.6-0.0123 6.04 0.048 6.04 0.048 8.27 2.28 0.195 2.42 0.265 4.72 0.247 7.14 0.00241 0.744 0.00483 1.49 0.00732 2.26 0.00566 2.51-0.00304 5.01-0.0116 7.52 0.00107 1.79 0.00301 3.58 0.00575 5.38 0.00486 4.88-0.00282 9.75-0.013 14.6-0.00876 5.09-0.00702 10.2-0.00664 15.3-9.37e-4 8.55-0.00963 17.1-0.0233 25.7-0.0157 9.9-0.021 19.8-0.0203 29.7 6.09e-4 9.51-0.00449 19-0.0128 28.5-0.00354 4.05-0.00536 8.11-0.00589 12.2-1e-3 4.77-0.00708 9.54-0.0172 14.3-0.00293 1.76-0.00415 3.51-0.00357 5.27 4.87e-4 2.39-0.00513 4.77-0.0124 7.16 0.00155 0.704 0.0031 1.41 0.00469 2.13-0.0242 4.77-0.0242 4.77-1.14 5.88-2.61 0.113-5.19 0.164-7.8 0.168-0.786 0.00333-1.57 0.00666-2.38 0.0101-1.67 0.00507-3.34 0.00741-5 0.00725-2.54 0.00218-5.09 0.0203-7.63 0.0393-1.62 0.00294-3.24 0.00492-4.86 0.00586-0.759 0.00719-1.52 0.0144-2.3 0.0218-4.41-0.0189-6.79-0.558-11-2.25-0.33-8.91-0.66-17.8-1-27-4.04 2.02-4.81 2.75-7.06 6.38-4.17 6.61-4.17 6.61-5.94 8.62h-3c-0.33 0.99-0.66 1.98-1 3-0.99-0.33-1.98-0.66-3-1v-1c-2.31-0.33-4.62-0.66-7-1 0.33-0.66 0.66-1.32 1-2-0.33-0.33-0.66-0.66-1-1-0.141-2.67-0.0425-5.32 0-8-3.12 1.31-3.12 1.31-5 4h-6c-0.33-0.99-0.66-1.98-1-3-2.5-1.22-2.5-1.22-5-2 0.75-4.75 0.75-4.75 3-7 0.66-0.33 1.32-0.66 2-1v-2c0.678-0.0864 1.36-0.173 2.05-0.262 11.5-1.73 20.2-6.35 28-15 2.21-3.05 3.4-5.87 4.66-9.42 0.625-1.71 0.625-1.71 1.26-3.45 2.42-7.91 2.19-16.4 2.13-24.6-0.00307-1.02-0.00613-2.04-0.00929-3.1-0.00711-2.2-0.0165-4.4-0.0279-6.6-0.0175-3.48-0.0277-6.96-0.0359-10.4-0.0244-9.89-0.0602-19.8-0.105-29.7-0.0267-6.06-0.0438-12.1-0.0549-18.2-0.00622-2.31-0.0162-4.62-0.0301-6.93-0.0191-3.21-0.0261-6.43-0.0303-9.64-0.00876-0.959-0.0175-1.92-0.0266-2.91 0.0013-0.872 0.00261-1.74 0.00395-2.64-0.00314-0.759-0.00628-1.52-0.00952-2.3 0.636-4.86 4.55-4.1 8.52-4.14z" fill="#C610F4"/>
<path transform="translate(955 181)" d="m0 0c0.972-0.0206 1.94-0.0412 2.95-0.0625 10.4-0.0567 16.5 4.45 24.1 11.3 12.4 13.5 14.5 28.8 14.4 46.6 0.0116 1.31 0.0232 2.63 0.0352 3.98-0.0439 14.7-3.21 29.5-13.5 40.6-5.43 5.33-10.2 8.1-17.6 10.1-2.31 0.429-2.31 0.429-3.37 1.66-7.91 0.821-14.8 0.173-22.3-2.31-0.652-0.213-1.3-0.426-1.98-0.645-1.83-0.656-1.83-0.656-4.71-2.04-0.33-0.99-0.66-1.98-1-3-0.742-0.289-1.49-0.577-2.25-0.875-7.17-2.93-11.8-10.9-14.9-17.7-4.77-12.2-5.18-24.6-4.8-37.4 0.018-1.22 0.0361-2.45 0.0547-3.71 0.313-8.35 2.25-14.8 5.95-22.3 0.536-1.13 1.07-2.27 1.62-3.44 0.681-1.27 0.681-1.27 1.38-2.56 0.392-0.804 0.784-1.61 1.19-2.44 4.58-6.48 12.5-13.3 20.4-15.2 4.82-0.536 9.6-0.607 14.4-0.633z" fill="#FDFDFE"/>
<path transform="translate(634,174)" d="m0 0h3c4.96 12.8 9.71 25.7 14.2 38.7 1.25 3.62 2.53 7.23 3.81 10.8 9.89 28 9.89 28 13.1 37.8 0.988 2.9 2.06 5.76 3.14 8.62 1.24 3.31 2.42 6.63 3.59 9.96 0.255 0.721 0.51 1.44 0.773 2.19 2.19 6.23 4.29 12.5 6.32 18.8 1.48 4.5 3.22 8.8 5.09 13.2 0.765 2.2 1.5 4.4 2.19 6.62 0.344 1.09 0.688 2.17 1.04 3.29 0.716 2.87 0.831 5.15 0.77 8.09-6.19 0.0989-12.4 0.171-18.6 0.22-2.11 0.0201-4.21 0.0474-6.32 0.082-3.03 0.0485-6.06 0.0712-9.08 0.0889-1.41 0.031-1.41 0.031-2.85 0.0626-6.48 0.00222-6.48 0.00222-9.64-2.11-1.74-2.67-2.84-5.18-3.89-8.19-0.408-1.15-0.816-2.31-1.24-3.5-0.42-1.23-0.839-2.45-1.27-3.72-0.441-1.26-0.883-2.53-1.33-3.79-3.06-8.77-5.93-17.6-8.64-26.5-1.06-3.54-1.06-3.54-2.31-6.41-0.844-2.25-0.844-2.25-0.844-6.25-4.95-0.33-9.9-0.66-15-1 0.33-0.66 0.66-1.32 1-2 2.1-0.081 4.21-0.139 6.31-0.188 1.17-0.0348 2.34-0.0696 3.55-0.105 3.14 0.293 3.14 0.293 5.05 1.8 0.357 0.491 0.714 0.982 1.08 1.49 0.99-0.99 1.98-1.98 3-3v2c1.21 0.186 1.21 0.186 2.44 0.375 0.846 0.206 1.69 0.413 2.56 0.625 0.33 0.66 0.66 1.32 1 2 0.289-0.639 0.577-1.28 0.875-1.94 1.12-2.06 1.12-2.06 3.12-3.06v-2h3c0.495-1.49 0.495-1.49 1-3-1.49-0.495-1.49-0.495-3-1 0.495-1.98 0.495-1.98 1-4h2c-0.33-1.65-0.66-3.3-1-5-0.99 1.98-0.99 1.98-2 4v-17c-3.3-0.33-6.6-0.66-10-1v-2h-3v2c-6.75 1.12-6.75 1.12-9 0v-4c-0.969 0.108-0.969 0.108-1.96 0.219-16.7 1.64-33.4 0.71-50-0.219v-1c14.2-0.33 28.4-0.66 43-1-2.19-8.77-4.5-17.4-7.06-26.1-0.351-1.21-0.703-2.42-1.06-3.66-0.341-1.15-0.682-2.31-1.03-3.5-0.306-1.04-0.611-2.08-0.926-3.15-0.854-2.81-0.854-2.81-2.91-5.63 0.375-3.69 0.375-3.69 1-7 4.05-1.16 6.22-0.837 10 1 0.144-0.639 0.289-1.28 0.438-1.94 0.562-2.06 0.562-2.06 1.56-3.06 4.16-0.16 7.95 0.0175 12 1 1.12-2.12 1.12-2.12 2-5h9c0.33-0.99 0.66-1.98 1-3z" fill="#FC1FAA"/>
<path transform="translate(166,302)" d="m0 0c9.81-0.0311 19.6-0.0512 29.4-0.0625 0.735-8.56e-4 1.47-0.00171 2.23-0.00259 30.5-0.0313 60.9 0.393 91.3 1.07 0.578 1.36 0.578 1.36 1.17 2.74 2.92 6.85 5.89 13.7 8.96 20.4 2.92 6.51 5.61 13 7.88 19.8-3.7 4.34-7.74 6.63-12.8 9.26-3.69 1.99-7.27 4.12-10.9 6.3-5.4 3.27-10.8 6.42-16.4 9.44-1.46 0.811-2.92 1.62-4.38 2.44-3.34 1.86-6.7 3.68-10.1 5.5-4.64 2.51-9.12 5.22-13.6 8.06-0.659 0.331-1.32 0.663-2 1-2-1-2-1-3-4-2-1.21-2-1.21-4-2 0.495-1.49 0.495-1.49 1-3 0.66-0.33 1.32-0.66 2-1-0.33-0.99-0.66-1.98-1-3 0.99-0.33 1.98-0.66 3-1 0.33-0.66 0.66-1.32 1-2h5c-0.33-0.99-0.66-1.98-1-3h-2v-4c-0.66-0.33-1.32-0.66-2-1-0.309-0.66-0.619-1.32-0.938-2-0.952-2.35-0.952-2.35-4.06-3v-2h-3c-0.433-1.22-0.866-2.43-1.31-3.69-0.965-2.6-1.94-4.73-3.38-7.12-1.31-2.19-1.31-2.19-1.31-5.19h-2v-2h-3v-2h-2v-2h-3c-0.266-0.626-0.531-1.25-0.805-1.9-0.53-1.23-0.53-1.23-1.07-2.48-0.348-0.812-0.696-1.62-1.05-2.46-0.995-2.3-0.995-2.3-3.07-4.16-0.358-2.33-0.688-4.66-1-7-1.24-4.67-2.89-8.28-6-12-2.81-0.624-4.8-0.841-7.61-0.805-0.727-0.0137-1.45-0.0274-2.2-0.0415-2.31-0.0373-4.62-0.0336-6.94-0.0288-1.57-0.0181-3.14-0.0389-4.71-0.0625-3.85-0.0518-7.69-0.0669-11.5-0.0625v-2z" fill="#FD0636"/>
<path transform="translate(279,78)" d="m0 0c0.908 0.639 1.81 1.28 2.75 1.94 2.64 1.68 4.24 2.6 7.25 3.06-0.33 1.32-0.66 2.64-1 4 0.99 0.33 1.98 0.66 3 1v3h2c0.66 1.98 1.32 3.96 2 6h2c1.76 3.09 2 4.23 2 8 0.99-0.33 1.98-0.66 3-1 2.74 3.2 4.63 6 6 10h3c1 2 2 4 3 6 0.99 0.33 1.98 0.66 3 1l3 6c1.65 1.69 3.31 3.36 5 5 0.33 0.99 0.66 1.98 1 3 1.46 1.63 1.46 1.63 3 3 1 1 1 1 2 3h2c1.78 2.63 3.15 5.31 4.5 8.19 1.34 3.05 1.34 3.05 4.5 4.81 0.686 1.32 1.35 2.66 2 4 3.72 4.54 7.12 7.71 13 9v3c2.64 0.66 5.28 1.32 8 2v2c1.65 0.33 3.3 0.66 5 1v1c1.14 0.186 1.14 0.186 2.31 0.375 3.62 0.842 5.29 2.01 7.31 5.12 2.86 7.28 2.55 15.5 2.52 23.2-0.00322 1.35-0.00322 1.35-0.0065 2.73-0.081 10.5-0.78 20.9-1.52 31.4-0.138 2.02-0.275 4.05-0.411 6.07-0.935 13.7-1.96 27.4-3.21 41.1h-3v-3h-2c-3.53-6.78-6.61-13.7-9.59-20.7-1.66-3.84-3.48-7.55-5.41-11.3-6.18-12.1-11.8-24.4-17-37-2.26-5.39-4.8-10.6-7.44-15.8-8.18-16.2-15.7-32.7-22.9-49.3-2.27-5.14-4.71-10.2-7.29-15.2-1.57-3.17-2.95-6.41-4.32-9.68-1.18-2.77-2.37-5.54-3.56-8.31-0.455-1.07-0.455-1.07-0.92-2.17-1.75-4.09-1.75-4.09-4.52-7.52-0.652-1.48-1.25-2.98-1.81-4.5-1.77-4.64-3.94-8.88-6.43-13.2-0.758-2.32-0.758-2.32 0.109-5.12 0.374-0.728 0.748-1.46 1.13-2.21-0.99-0.33-1.98-0.66-3-1v-2z" fill="#FC1072"/>
<path transform="translate(217,136)" d="m0 0c0.99 0.33 1.98 0.66 3 1 1.18 2.48 1.18 2.48 2.31 5.75 1.73 4.76 3.59 9.36 5.75 13.9 2.52 5.37 4.78 10.8 6.94 16.3 0.998 2.5 2 5 3 7.5 1.37 3.43 2.75 6.86 4.1 10.3 1.61 4.09 3.3 8.1 5.15 12.1 3.58 7.78 6.67 15.8 9.81 23.7 0.844 2.13 1.7 4.26 2.57 6.38 0.454 1.13 0.908 2.27 1.38 3.43 0.392 0.968 0.784 1.94 1.19 2.93 0.838 2.71 0.874 4.81 0.812 7.63-8.05 0.0231-16.1 0.0409-24.1 0.0518-3.74 0.00522-7.47 0.0123-11.2 0.0236-3.61 0.0108-7.21 0.0168-10.8 0.0194-1.38 0.00185-2.75 0.00547-4.13 0.0109-1.93 0.00723-3.85 0.00768-5.78 0.0078-1.1 0.00222-2.19 0.00444-3.32 0.00673-2.59-0.12-2.59-0.12-4.59-1.12-1.96-0.154-3.92-0.25-5.88-0.316-1.17-0.0419-2.33-0.0838-3.54-0.127-1.22-0.0393-2.45-0.0786-3.71-0.119-1.23-0.0432-2.46-0.0864-3.73-0.131-3.05-0.106-6.1-0.208-9.14-0.307 0.496-5.02 1.18-9.1 3.25-13.8 0.452-1.04 0.905-2.07 1.37-3.14 0.455-1.03 0.91-2.05 1.38-3.11 0.776-1.85 1.55-3.71 2.31-5.56 2.24-5.38 4.49-10.8 6.75-16.1 0.493-1.18 0.493-1.18 0.995-2.38 1.62-3.86 3.28-7.7 5-11.5 1.82-4.08 3.42-8.22 4.94-12.4 1.84-5 3.77-9.9 6.01-14.7 1.24-2.84 2.29-5.73 3.36-8.64 2.35-6.2 5.29-11.9 8.62-17.6z" fill="#FD0636"/>
<path transform="translate(1e3 343)" d="m0 0 2 2c-0.0586 2.93-0.0586 2.93-0.438 6.44-0.569 4.86-0.569 4.86 0.438 9.56v3c0.66 0.33 1.32 0.66 2 1-0.33 0.66-0.66 1.32-1 2 2.64 0.33 5.28 0.66 8 1 0.99 2.64 1.98 5.28 3 8h2c-0.574 3.87-2.49 6.08-5 9 0.66 0.33 1.32 0.66 2 1-7.83 5.56-15.6 9.38-24.8 12.3-1.47 0.472-2.93 0.971-4.38 1.5-20.1 7.23-45.5 7.34-65.9 1.22-1.02-0.266-2.04-0.531-3.1-0.805-17.4-4.78-34.4-14.7-43.7-30.7-2.06-4.19-3.23-7.79-3.23-12.5 12.9-3.74 25.7-6.83 39-9 0.387 0.519 0.773 1.04 1.17 1.57 0.781 1.05 0.781 1.05 1.58 2.11 0.51 0.684 1.02 1.37 1.55 2.07 0.562 0.739 1.12 1.48 1.7 2.24 0.614 0.849 1.23 1.7 1.86 2.57 6.33 7.17 17.1 9.72 26.1 11.4 0.812 0.189 1.62 0.379 2.46 0.574 6.65 1.14 12.7-0.211 19.2-1.7 1.32-0.3 1.32-0.3 2.68-0.605 7.01-1.75 15-4.12 19.1-10.5 0.536-0.908 1.07-1.81 1.62-2.75 0.99-0.33 1.98-0.66 3-1-0.33 1.32-0.66 2.64-1 4h5c0.66-4.62 1.32-9.24 2-14 1.65-0.33 3.3-0.66 5-1z" fill="#E421EA"/>
<path transform="translate(500,229)" d="m0 0c0.99 0.66 1.98 1.32 3 2v3h3c0.33-0.66 0.66-1.32 1-2v7c4.99 0.582 9.95 1.02 15 1.22 0.886 0.0368 1.77 0.0736 2.68 0.112 1.79 0.0708 3.59 0.134 5.38 0.189 0.84 0.0336 1.68 0.0672 2.54 0.102 0.753 0.0251 1.51 0.0501 2.28 0.0759 2.43 0.346 4.07 0.974 6.13 2.3 0.75 2.62 0.75 2.62 1 5 1.86 0.34 1.86 0.34 3.75 0.688 3.32 0.818 4.22 1.28 6.75 3.81 1.5 2.5 1.5 2.5 1.5 4.5 0.309 1.24 0.309 1.24 0.625 2.5 0.124 0.825 0.247 1.65 0.375 2.5l-2 2h-3v2c-5.62 1.98-5.62 1.98-8.64 2.17-3.46 0.402-5.45 0.874-8.36 2.83-2.81 4.81-4.02 10.4-5.38 15.7-0.783 2.85-1.82 5.56-2.89 8.31-1.23 3.27-2.22 6.61-3.24 9.95-1.67 5.41-3.41 10.7-5.5 16-0.342 0.878-0.683 1.76-1.04 2.66-2.83 7.2-2.83 7.2-3.96 8.34-1.79 0.1-3.58 0.131-5.37 0.133-1.12 0.00193-2.25 0.00387-3.41 0.00586-1.21-0.00451-2.42-0.00902-3.66-0.0137-1.22-0.00193-2.43-0.00387-3.69-0.00586-9.65-0.0458-19.2-0.415-28.9-1.12-1.29-3.59-0.698-5.56 0.688-9.06 0.379-0.981 0.758-1.96 1.15-2.97 0.384-0.978 0.768-1.96 1.16-2.96 0.61-1.66 1.21-3.33 1.81-5 1.24-3.41 2.49-6.81 3.75-10.2 8.25-21.4 8.25-21.4 14.7-43.4 0.768-2.61 1.83-5.03 2.92-7.51 1.31-3.12 2.32-6.34 3.35-9.56 2.48-7.75 2.48-7.75 4.44-11.3z" fill="#FC1A87"/>
<path transform="translate(1038,208)" d="m0 0h2c0.0468 17.6 0.082 35.1 0.104 52.7 0.0103 8.15 0.0243 16.3 0.0473 24.5 0.02 7.11 0.0329 14.2 0.0373 21.3 0.0026 3.76 0.00867 7.52 0.0233 11.3 0.0137 3.55 0.0177 7.09 0.0148 10.6 8.05e-4 1.91 0.0115 3.82 0.0226 5.73-0.0218 9.2-1.25 17.5-4.19 26.2-0.478 1.45-0.478 1.45-0.965 2.93-1.56 3.93-3.76 7.25-6.1 10.8h-2c-0.66 1.65-1.32 3.3-2 5h-2c-0.227 0.619-0.454 1.24-0.688 1.88-1.69 2.74-3.3 3.18-6.31 4.12 1.5-3.11 3.2-6.05 5-9-0.99 0.33-1.98 0.66-3 1-0.66-2.64-1.32-5.28-2-8-2.05-0.512-4.11-1.02-6.19-1.38-0.598-0.206-1.2-0.413-1.81-0.625-0.33-0.99-0.66-1.98-1-3l-1 4c-1-3.12-0.807-4.87 0-8-0.33-0.99-0.66-1.98-1-3 0.0857-2.07 0.238-4.13 0.438-6.19 0.102-1.09 0.204-2.17 0.309-3.29 0.0838-0.831 0.168-1.66 0.254-2.52h-5c-0.99 4.29-1.98 8.58-3 13-1.98 0.33-3.96 0.66-6 1 0.186-0.619 0.371-1.24 0.562-1.88 0.674-2.17 0.674-2.17-0.562-4.12 0.452-1.24 0.905-2.48 1.37-3.75 2.21-6.27 2.36-12.6 2.69-19.2 1.12-20.9 1.12-20.9 4.94-29.1-0.99-0.66-1.98-1.32-3-2-1.78-4.11-2.21-7.55-2-12 0.557 0.227 1.11 0.454 1.69 0.688 3.23 0.437 4.7-0.876 7.31-2.69 0.268 0.825 0.536 1.65 0.812 2.5 1.31 3.87 2.74 7.68 4.19 11.5 0.66-2.64 1.32-5.28 2-8 2.81-0.688 2.81-0.688 6-1 1.88 1.44 1.88 1.44 3 3 2.12-0.896 2.12-0.896 4-3 0.424-2.28 0.568-4.53 0.723-6.84 0.353-2.75 1.38-4.18 3.28-6.16 0.33-0.66 0.66-1.32 1-2 0.99-0.33 1.98-0.66 3-1-1.32-0.33-2.64-0.66-4-1-0.0545-1.42-0.093-2.83-0.125-4.25-0.0232-0.789-0.0464-1.58-0.0703-2.39 0.195-2.36 0.195-2.36 1.31-4.34 1.14-2.04 1.14-2.04 0.273-4.45-0.376-0.846-0.753-1.69-1.14-2.56-0.366-0.846-0.732-1.69-1.11-2.56-0.725-1.55-1.47-3.09-2.25-4.61-0.887-1.82-0.887-1.82-1.32-4.01-0.278-0.897-0.278-0.897-0.562-1.81-1.49-0.495-1.49-0.495-3-1 0.33-0.99 0.66-1.98 1-3 0.887 0.186 1.77 0.371 2.69 0.562 3.16 0.418 5.26 0.245 8.31-0.562-0.289-0.516-0.578-1.03-0.875-1.56-2.28-4.93-3.74-9.11-2.12-14.4 1.65-0.33 3.3-0.66 5-1 0.99-4.29 1.98-8.58 3-13z" fill="#E420EE"/>
<path transform="translate(175,39)" d="m0 0c-0.58 4.76-1.99 8.69-4 13-0.654 1.43-0.654 1.43-1.32 2.88-1.02 2.23-2.05 4.45-3.08 6.67-1.02 2.2-2.03 4.41-3.04 6.62-2.77 6.08-5.67 12.1-8.68 18-2.56 5.05-4.87 10.1-6.88 15.4-1.61 3.94-3.58 7.7-5.53 11.5-1.62 3.27-3.04 6.6-4.46 9.96-1.12 2.49-2.28 4.96-3.44 7.44-0.305 0.652-0.61 1.3-0.924 1.98-2.14 4.57-4.35 9.09-6.64 13.6h-4l-1-2h-3-1l-0.113-2.56c-0.0657-1.13-0.131-2.27-0.199-3.44-0.058-1.11-0.116-2.23-0.176-3.38-0.498-3.53-1.42-6.26-2.73-9.53-1.33-3.57-2.13-7.26-2.97-11l-0.537-2.3c-1.28-5.53-1.28-5.53-1.28-7.83h-2c-0.33-1.98-0.66-3.96-1-6-1.48-0.495-1.48-0.495-3-1v-2c-0.619-0.289-1.24-0.578-1.88-0.875-2.12-1.12-2.12-1.12-4.12-3.12-2.07-0.643-2.07-0.643-4-1l1-8c-4.39-0.169-7.16-0.0505-11 2-2.75 0.125-2.75 0.125-5 0 0.988-2.55 1.64-3.78 4.01-5.22 0.812-0.331 1.62-0.661 2.46-1 0.9-0.375 1.8-0.75 2.73-1.14 0.944-0.378 1.89-0.755 2.86-1.14 1.85-0.76 3.69-1.52 5.54-2.28l2.74-1.12c5.26-2.18 10.5-4.46 15.5-7.04 2.91-1.47 5.84-2.85 8.81-4.19 5.54-2.49 11-5.12 16.5-7.75 7.82-3.75 15.7-7.33 23.7-10.8 3.03-1.27 3.03-1.27 5.34-2.56 1.82-0.812 1.82-0.812 5.82-0.812z" fill="#FC0918"/>
<path transform="translate(305,58)" d="m0 0c4.61 1.15 8.56 2.67 12.8 4.86 2.54 1.29 5.13 2.47 7.73 3.64 3.87 1.74 7.68 3.55 11.5 5.51 2.36 1.14 4.77 2.16 7.18 3.18 3.03 1.31 6.01 2.72 8.99 4.12 1.32 0.619 2.64 1.24 3.96 1.86 0.656 0.307 1.31 0.615 1.99 0.931 2.91 1.36 5.83 2.69 8.74 4.03 5.46 2.51 10.8 5.15 16.2 7.88 0.731 0.335 1.46 0.67 2.21 1.02 1.79 0.984 1.79 0.984 2.79 2.98 0.489 8.22-0.254 16.5-0.805 24.7-0.126 1.9-0.126 1.9-0.255 3.85-0.178 2.66-0.358 5.32-0.54 7.98-0.233 3.41-0.454 6.83-0.672 10.2-0.211 3.27-0.436 6.53-0.659 9.8-0.116 1.84-0.116 1.84-0.234 3.72-0.0799 1.13-0.16 2.25-0.242 3.41-0.0666 0.995-0.133 1.99-0.202 3.02-0.129 0.742-0.259 1.48-0.392 2.25-0.99 0.495-0.99 0.495-2 1-0.289-1.24-0.577-2.48-0.875-3.75-1.07-4.33-1.07-4.33-3.12-8.25-1.49-0.495-1.49-0.495-3-1-0.688-2.06-0.688-2.06-1-4-1.18 0.0928-1.18 0.0928-2.38 0.188-0.866-0.0619-1.73-0.124-2.62-0.188-0.66-0.99-1.32-1.98-2-3-2.07-1.19-2.07-1.19-4.44-2.12-1.17-0.499-1.17-0.499-2.37-1.01-1.71-0.677-3.45-1.29-5.19-1.87 0.495-1.49 0.495-1.49 1-3-0.99-0.495-0.99-0.495-2-1-0.33-0.33-0.66-0.66-1-1h-3c-3.19-1.81-3.19-1.81-6-4v-3c-0.33-0.66-0.66-1.32-1-2-0.99 0.495-0.99 0.495-2 1-1-5.75-1-5.75-1-8-0.33-0.66-0.66-1.32-1-2l-2 1c-0.33-1.65-0.66-3.3-1-5-1.32-0.33-2.64-0.66-4-1-1-7.75-1-7.75-1-10h-2v-2c-0.66-0.33-1.32-0.66-2-1-0.33-0.99-0.66-1.98-1-3h-5c-0.33-0.66-0.66-1.32-1-2 0.33-0.66 0.66-1.32 1-2l-1.86-0.184c-2.14-0.816-2.14-0.816-3.45-3.04-2.22-6.23-2.97-10.3-1.7-16.8-0.33-0.99-0.66-1.98-1-3-0.103-1.18-0.206-2.35-0.312-3.56-0.278-3.47-0.278-3.47-2.5-4.69-0.722-0.248-1.44-0.495-2.19-0.75-2.25-1.5-2.25-1.5-4-3v-2z" fill="#FC1F99"/>
<path transform="translate(703 146)" d="m0 0c1.25 0.00137 1.25 0.00137 2.53 0.00276 0.858-0.00429 1.72-0.00857 2.6-0.013 1.82-0.00575 3.63-0.00624 5.45-0.00191 2.79 0.00316 5.57-0.0203 8.35-0.0457 1.76-0.00227 3.52-0.00298 5.29-0.00195 0.836-0.00921 1.67-0.0184 2.53-0.0279 2.35 0.0189 2.35 0.0189 6.12 0.391 2.33 3.49 2.23 4.8 2.16 8.91-0.0164 1.73-0.0164 1.73-0.0332 3.5-0.0213 1.21-0.0425 2.41-0.0645 3.65-0.0343 2.39-0.0645 4.77-0.0898 7.16-0.018 1.06-0.0359 2.12-0.0544 3.21-0.0977 2.56-0.0977 2.56 1.08 4.57 0.531-0.808 1.06-1.62 1.61-2.45 0.706-1.07 1.41-2.14 2.14-3.24 0.696-1.06 1.39-2.11 2.11-3.2 3.49-5.07 6.73-8.83 11.8-12.4 0.962-0.697 1.92-1.39 2.91-2.11 2.46-1.57 2.46-1.57 4.46-1.57 0.495 1.98 0.495 1.98 1 4 1.67 0.155 1.67 0.155 3.38 0.312 1.2 0.227 2.39 0.454 3.62 0.688 0.99 1.49 0.99 1.49 2 3 0.99 0.33 1.98 0.66 3 1 1.22 2.96 0.965 5 0 8h2c0.33-2.31 0.66-4.62 1-7 2.48-0.495 2.48-0.495 5-1 0.911 3.07 1.09 5.8 1 9h-2c-0.33 0.66-0.66 1.32-1 2-0.495-1.49-0.495-1.49-1-3 0.33-0.66 0.66-1.32 1-2h-2v12c-1.49-0.495-1.49-0.495-3-1v3c-3.59 1.8-7.78 1.81-11.7 2.3-3.38 0.721-5.43 1.76-8.26 3.7-0.669 0.414-1.34 0.828-2.03 1.25-7.03 4.82-11.3 11.7-14 19.7-1.02 6.5-1.16 12.9-1.19 19.4-0.00829 1.12-0.0166 2.24-0.0251 3.4-0.0173 2.42-0.0325 4.84-0.0458 7.27-0.0211 3.83-0.0481 7.66-0.0767 11.5-0.0646 8.81-0.121 17.6-0.176 26.4-0.0549 8.73-0.113 17.5-0.179 26.2-0.0267 3.78-0.0474 7.56-0.068 11.3-0.0166 2.3-0.0335 4.6-0.0507 6.9-0.00418 1.06-0.00837 2.12-0.0127 3.21-0.00834 0.957-0.0167 1.91-0.0253 2.9-0.00515 0.837-0.0103 1.67-0.0156 2.54-0.136 1.9-0.136 1.9-1.14 2.9-1.52 0.0718-3.04 0.0839-4.56 0.0625-0.826-0.00902-1.65-0.018-2.5-0.0273-0.638-0.0116-1.28-0.0232-1.93-0.0352 0.33-0.66 0.66-1.32 1-2h4c2.29-6.55 2.61-13.1 3-20h-2c-0.934-5.42-1.21-8.8 1-14h-6c0.0116-1.05 0.0232-2.1 0.0352-3.18 0.00938-1.38 0.0185-2.76 0.0273-4.14 0.0126-1.04 0.0126-1.04 0.0254-2.09 0.0152-3.14-0.086-5.59-1.09-8.6 0.221-1.99 0.445-3.98 0.746-5.96 0.336-2.35 0.336-2.35 0.254-6.04h-5v-9c1.65 0.33 3.3 0.66 5 1-0.144-0.536-0.289-1.07-0.438-1.62-1.47-6.2-1.68-12-1.56-18.4-0.99 0.495-0.99 0.495-2 1-0.188-2.88-0.188-2.88 0-6 0.99-0.66 1.98-1.32 3-2 0.167-3 0.167-3 0-6 0.33-0.66 0.66-1.32 1-2h2c-0.33-1.32-0.66-2.64-1-4h2c0.11-0.638 0.219-1.28 0.332-1.93 0.159-0.826 0.317-1.65 0.48-2.5 0.151-0.824 0.302-1.65 0.457-2.5 0.241-0.682 0.482-1.36 0.73-2.07 0.99-0.33 1.98-0.66 3-1 0.0909-1.16 0.0909-1.16 0.184-2.34 0.0838-1 0.168-2.01 0.254-3.04 0.0812-0.998 0.162-2 0.246-3.02 0.316-2.6 0.316-2.6 1.32-4.6-0.99 0.33-1.98 0.66-3 1-0.33-3.63-0.66-7.26-1-11h-2v-2c-1.67-0.0427-3.33-0.0406-5 0-0.33 0.33-0.66 0.66-1 1-2.78 0.0725-5.55-0.00375-8.34-0.0625-2.77-0.0656-2.77-0.0656-5.66 1.06-0.761-0.166-1.52-0.333-2.3-0.504-4.17-0.767-7.86 0.363-12 1.23-2.74 0.277-2.74 0.277-5.74-1.72-0.292-2.81-0.396-5.4-0.363-8.22-4.99e-4 -0.814-9.97e-4 -1.63-0.00151-2.47 0.00234-1.72 0.0121-3.44 0.0286-5.16 0.0236-2.64 0.0206-5.28 0.0139-7.92 0.00558-1.67 0.0127-3.34 0.0215-5.01-9.11e-4 -0.793-0.00182-1.59-0.00276-2.4 0.0918-7.07 1.42-8.03 8.43-8.12z" fill="#FB2BC0"/>
<path transform="translate(92.2 80.9)" d="m0 0c1.24 0.0413 2.47 0.0825 3.75 0.125 0.201 3.63-0.142 5.87-2 9 0.722 0.0825 1.44 0.165 2.19 0.25 3.42 0.911 5.19 2.41 7.81 4.75 0.578 0.454 1.16 0.907 1.75 1.38 1.82 2.37 1.93 4.71 2.25 7.62h2c3.95 12.6 3.95 12.6 5.12 17.4 0.772 3.47 0.772 3.47 1.94 6.31 1.44 4.99 1.62 10.1 1.94 15.2h3c0.66 0.33 1.32 0.66 2 1-0.33 0.66-0.66 1.32-1 2h3c-1.59 5.22-3.43 10.1-5.96 14.9-1.58 3.19-2.83 6.5-4.11 9.82-0.876 2.16-1.86 4.23-2.93 6.3-0.66-0.33-1.32-0.66-2-1-0.33 0.66-0.66 1.32-1 2-0.99 0.33-1.98 0.66-3 1-0.474 0.516-0.949 1.03-1.44 1.56-1.56 1.44-1.56 1.44-5.56 1.44-0.33-0.99-0.66-1.98-1-3-0.99-0.495-0.99-0.495-2-1v-12c-1.32-0.33-2.64-0.66-4-1-0.33-1.65-0.66-3.3-1-5h-2v-2h-2c-0.99-0.99-0.99-0.99-2-2v-3h-2v-2h-2c-0.33-1.32-0.66-2.64-1-4h-2v-3h-2c-0.495-2.47-0.495-2.47-1-5h-2v-6h-2c-0.33-2.64-0.66-5.28-1-8h-2c-1.59-4.18-2.21-7.53-2-12h-2c-0.33-1.98-0.66-3.96-1-6h-2v-3c-1.32-0.66-2.64-1.32-4-2v-3c-0.949 0.186-1.9 0.371-2.88 0.562-3.12 0.438-3.12 0.438-5.12-0.562-0.33 4.29-0.66 8.58-1 13h-1v-7h-2c-0.451-3.88-0.368-5.51 2-8.69 2.9-2.23 5.42-3.24 8.83-4.46 2.83-1.11 5.44-2.52 8.11-3.96 6.7-3.61 11.3-5.67 19.1-4.89 3.02-1.49 4.84-2.24 8.25-2.12z" fill="#FB040A"/>
<path transform="translate(1229,87)" d="m0 0c0.66 0.33 1.32 0.66 2 1 2.74-0.177 5.45-0.516 8.18-0.844 2.82-0.156 5.09 0.167 7.82 0.844-0.99 0.495-0.99 0.495-2 1 0.0116 0.664 0.0232 1.33 0.0352 2.01 0.00902 0.883 0.018 1.77 0.0273 2.68 0.0116 0.87 0.0232 1.74 0.0352 2.64-0.0977 2.68-0.0977 2.68-0.629 5.09-0.582 3.21-0.326 6.03-0.0312 9.27 0.424 5.12 0.607 10.1 0.523 15.3-0.0291 2.17-0.0291 2.17 0.664 4.73 0.375 2.31 0.375 2.31-0.617 5.32-1.42 4.74-1.07 9.29-0.758 14.2 0.04 0.889 0.0799 1.78 0.121 2.69 0.237 4.26 0.5 7.35 2.63 11.1 0.99-0.495 0.99-0.495 2-1 1.54 5.25 2.18 8.58 1 14-0.037 2-0.0476 4 0 6h2v2c3.46-0.495 3.46-0.495 7-1 0.244 4.14-0.651 7.1-2 11-0.725 2.99-1.37 5.99-2 9-1.65-0.33-3.3-0.66-5-1 0.0116 0.987 0.0232 1.97 0.0352 2.99 0.00902 1.28 0.018 2.56 0.0273 3.88 0.0116 1.28 0.0232 2.55 0.0352 3.87-0.0977 3.26-0.0977 3.26-1.1 5.26-0.66-0.33-1.32-0.66-2-1 0.33-0.66 0.66-1.32 1-2-0.66 0.33-1.32 0.66-2 1-0.467 2.13-0.467 2.13-0.625 4.56-0.0748 0.826-0.15 1.65-0.227 2.5-0.0735 0.957-0.0735 0.957-0.148 1.93 0.99-0.33 1.98-0.66 3-1 2.26 6.22 2.66 12.4 2 19-0.66 0.99-1.32 1.98-2 3-0.33-0.99-0.66-1.98-1-3-1.23 3.69-0.983 6.77-0.84 10.6-0.16 2.38-0.16 2.38-2.16 5.38-0.0913 2.72-0.0959 5.35 0 8.06 0.094 2.67 0.0932 5.26 0 7.94-0.99 0.99-0.99 0.99-2 2 0.15 0.882 0.299 1.76 0.453 2.67 0.641 3.9 0.133 6.73-0.703 10.6-0.253 1.22-0.505 2.44-0.766 3.7-0.984 3.05-0.984 3.05-3.98 5.05-0.66 0.33-1.32 0.66-2 1v2h-2c-0.495 0.99-0.495 0.99-1 2-3.6-10.8-2.19-24.1-2.26-35.4-0.0213-3.23-0.0483-6.47-0.0767-9.7-0.0693-8.02-0.129-16-0.189-24.1-0.0511-6.8-0.106-13.6-0.166-20.4-0.0264-3.17-0.0473-6.34-0.068-9.51-0.0166-1.96-0.0335-3.92-0.0507-5.88-0.00418-0.869-0.00837-1.74-0.0127-2.63-0.042-4.17-0.232-8.26-0.687-12.4-0.531-4.91-0.588-9.72-0.511-14.7 0.00961-0.909 0.0192-1.82 0.0291-2.75 0.0326-2.97 0.0731-5.93 0.114-8.89 0.0243-2.07 0.0482-4.14 0.0715-6.21 0.0625-5.42 0.132-10.8 0.202-16.3 0.071-5.54 0.136-11.1 0.201-16.6 0.129-10.9 0.264-21.7 0.404-32.6z" fill="#B60CF7"/>
<path transform="translate(578,138)" d="m0 0c2.47 2.19 3.55 3.94 4.54 7.08 0.265 0.82 0.531 1.64 0.804 2.49 0.277 0.886 0.555 1.77 0.841 2.69 0.61 1.89 1.22 3.79 1.84 5.68 0.479 1.48 0.479 1.48 0.968 3 2.02 6.15 4.19 12.2 6.34 18.3 1.33 3.8 2.62 7.57 3.71 11.5 0.858 2.93 1.97 5.61 3.18 8.41 1.95 4.69 3.34 9.61 4.85 14.5 0.616 1.98 1.25 3.95 1.88 5.92 0.393 1.26 0.785 2.51 1.19 3.81 0.358 1.14 0.716 2.28 1.08 3.45 0.779 3.23 0.779 3.23 0.779 9.23h-63c-2.56-5.12 1.7-14.3 3.44-19.6 1.5-4.29 3.09-8.54 4.66-12.8 1.11-3.15 2-6.35 2.91-9.57 0.717-1.89 1.43-3.78 2.16-5.67 0.983-2.73 1.82-5.49 2.65-8.27 3.5-11.5 7.58-22.9 12.2-34.1 0.345-0.892 0.691-1.78 1.05-2.7 0.953-2.3 0.953-2.3 1.95-3.3z" fill="#FDFDFE"/>
<path transform="translate(1395,246)" d="m0 0c0.0587 3.98 0.0938 7.96 0.125 11.9 0.0168 1.12 0.0335 2.23 0.0508 3.38 0.0754 12.9-2.25 21.6-10.8 31.6-4.69 4.48-10.2 6.29-16.4 8.11-0.99 0.335-1.98 0.67-3 1.02-10.2 3.01-20.8 1.82-30.5-2.63-0.824-0.456-1.65-0.913-2.5-1.38v-2c-0.889-0.379-0.889-0.379-1.8-0.766-4.18-2.34-6.34-5.9-8.2-10.2-0.988-5.7-1.33-11.3 1.25-16.6 1.47-2 2.97-3.71 4.75-5.43 0.499-0.543 0.998-1.09 1.51-1.64 1.49-1.36 1.49-1.36 4.49-2.36 0.33-0.66 0.66-1.32 1-2 2.48-0.949 4.89-1.76 7.44-2.5 0.753-0.222 1.51-0.444 2.28-0.673 6.33-1.76 12.6-2.66 19.1-3.19 4.61-0.381 8.7-1.29 13.2-2.63 2.06-0.388 4.12-0.744 6.19-1.06 4.06-0.622 4.06-0.622 8.05-1.56 1.76-0.379 1.76-0.379 3.76 0.621z" fill="#FDFDFE"/>
<path transform="translate(206,168)" d="m0 0c2.51 1.26 2.87 2.5 4 5h3c0.0673 0.83 0.0673 0.83 0.136 1.68 1.14 14.4 1.14 14.4 4.86 28.3 0.66-0.33 1.32-0.66 2-1 2.15 3.23 2.2 4.28 2 8l2 1c0.33 0.99 0.66 1.98 1 3h-2c0.66 3.3 1.32 6.6 2 10h2c0.66 1.65 1.32 3.3 2 5h2c0.495 2.47 0.495 2.47 1 5-0.99 0.33-1.98 0.66-3 1 0.495 4.45 0.495 4.45 1 9 1.32 0.33 2.64 0.66 4 1-20.4 0.784-40.6 1.2-61 0 0.496-5.02 1.18-9.1 3.25-13.8 0.452-1.04 0.905-2.07 1.37-3.14 0.455-1.03 0.91-2.05 1.38-3.11 0.776-1.85 1.55-3.71 2.31-5.56 2.24-5.38 4.49-10.8 6.75-16.1 0.493-1.18 0.493-1.18 0.995-2.38 1.62-3.85 3.27-7.68 4.99-11.5 1.91-4.28 3.59-8.62 5.21-13 0.268-0.723 0.536-1.45 0.812-2.19 0.648-1.75 1.29-3.5 1.94-5.25 0.33 0.66 0.66 1.32 1 2h2c0.33-0.99 0.66-1.98 1-3z" fill="#FD062C"/>
<path transform="translate(1391,281)" d="m0 0c0.99 0.33 1.98 0.66 3 1-1.31 3.44-1.31 3.44-3 7-0.99 0.33-1.98 0.66-3 1 0.495 0.773 0.495 0.773 1 1.56 1.32 3.22 1.13 5.99 1 9.44h-2c-0.495 1.49-0.495 1.49-1 3 0.66 0.33 1.32 0.66 2 1-0.495 1.49-0.495 1.49-1 3h8c0.495-1.49 0.495-1.49 1-3 0.495 1.49 0.495 1.49 1 3-2 2-2 2-5 3-1.29 1.52-2.51 3.09-3.69 4.69-6.38 8.15-13.3 13.2-23.7 14.6-1.49 0.148-2.97 0.272-4.46 0.363-2.21 0.214-2.21 0.214-4.32 1.32-4.05 1.42-7.87 1.28-12.1 1.24-1.22 0.0116-1.22 0.0116-2.47 0.0234-13-0.0414-13-0.0414-17.2-4.27-1.21-1.3-1.21-1.3-2.44-2.62-2.35-2.71-2.35-2.71-5.56-2.38-0.33-0.66-0.66-1.32-1-2h-8c0.0412-0.722 0.0825-1.44 0.125-2.19-0.134-3.02-0.877-5.08-2.12-7.81h-3c-0.33-0.66-0.66-1.32-1-2h-2v-5c3.38-0.845 5.67-1.11 9 0 0.33 1.32 0.66 2.64 1 4 0.66-0.66 1.32-1.32 2-2 2.32-0.4 4.66-0.74 7-1 0.66-2.64 1.32-5.28 2-8-0.66-0.33-1.32-0.66-2-1h2c-0.33-1.65-0.66-3.3-1-5 1.32 0.33 2.64 0.66 4 1v2c1.66 0.694 3.33 1.35 5 2 1.22 0.474 2.43 0.949 3.69 1.44 16.2 5.12 29.1 5.3 44.7-2.02 6.93-3.72 9.9-8.69 13.6-15.4z" fill="#B00AFA"/>
<path transform="translate(1228,190)" d="m0 0h2c0.0103 1.21 0.0206 2.42 0.0312 3.67 0.0981 11.5 0.201 22.9 0.308 34.4 0.055 5.89 0.108 11.8 0.158 17.7 0.048 5.69 0.1 11.4 0.156 17.1 0.0203 2.16 0.039 4.33 0.0561 6.49 0.0876 10.9 0.181 21.8 1.29 32.7 0.99 0.33 1.98 0.66 3 1 0.33-1.65 0.66-3.3 1-5h4v-5c0.99-0.495 0.99-0.495 2-1 0.66 0.33 1.32 0.66 2 1-0.0232-0.808-0.0464-1.62-0.0703-2.45-0.018-1.07-0.0361-2.14-0.0547-3.24-0.0232-1.06-0.0464-2.11-0.0703-3.2 0.199-3.16 0.731-5.31 2.2-8.11 1.33-0.333 2.67-0.667 4-1 1.3-2.49 1.3-2.49 2-5 1.48 0.495 1.48 0.495 3 1-0.33-0.99-0.66-1.98-1-3h2c0.66 1.32 1.32 2.64 2 4h3 5c1.32-4.95 2.64-9.9 4-15h2c0.0234 7.42 0.0411 14.8 0.0518 22.2 0.00517 3.45 0.0122 6.89 0.0236 10.3 0.0951 29.3 0.0951 29.3-1.08 42.4-5.5 0.0494-11 0.0857-16.5 0.11-1.87 0.0101-3.74 0.0237-5.61 0.041-2.69 0.0242-5.38 0.0356-8.06 0.0444-0.838 0.0103-1.68 0.0206-2.54 0.0313-5.94 0.00115-5.94 0.00115-9.29-2.23-0.431-1.8-0.431-1.8-0.508-4.02-0.0525-1.26-0.0525-1.26-0.106-2.55-0.0221-0.925-0.0442-1.85-0.067-2.8-0.0332-0.976-0.0663-1.95-0.1-2.96-0.381-12.5-0.343-25.1-0.316-37.6 0.00187-2.61 0.00329-5.23 0.00429-7.84 0.00307-6.11 0.0112-12.2 0.0213-18.3 0.0113-6.97 0.0167-13.9 0.0217-20.9 0.0104-14.3 0.0279-28.6 0.0503-42.9z" fill="#BF10F8"/>
<path transform="translate(1231,85)" d="m0 0c5.68-0.0246 11.4-0.0428 17-0.0549 1.93-0.00504 3.87-0.0119 5.8-0.0205 2.77-0.0121 5.55-0.0178 8.32-0.0222 1.3-0.00774 1.3-0.00774 2.64-0.0156 2.07-1.95e-4 4.14 0.0512 6.21 0.113 2.18 2.18 1.43 7.11 1.55 10.1 0.042 0.942 0.0841 1.88 0.127 2.85 0.436 10.6 0.471 21.2 0.443 31.8-0.00122 1.02-0.00244 2.04-0.00369 3.1-0.0207 15-0.2 29.9-0.559 44.8-0.0196 0.842-0.0391 1.68-0.0593 2.55-0.231 9.62-0.636 19.2-1.5 28.8h-1v-38c-1.98 0.495-1.98 0.495-4 1-1.07-6.03-1.1-11.9-1-18-0.99 0.33-1.98 0.66-3 1-0.99-0.99-1.98-1.98-3-3 0.33 2.31 0.66 4.62 1 7 1.32 0.33 2.64 0.66 4 1v6h-2v2c-1.98 0.99-1.98 0.99-4 2-0.66-2.64-1.32-5.28-2-8-0.33 0.66-0.66 1.32-1 2-2.06 0.625-2.06 0.625-4 1v2c-2 0-2 0-4.06-1.81-3.89-4.39-3.34-9.85-3.62-15.4-0.0599-0.929-0.12-1.86-0.182-2.82-0.215-4.17-0.361-7.84 0.912-11.9 0.993-3.19 0.943-4.04-0.043-7.08-0.0447-1.94-0.039-3.88 0-5.81 0.0661-6.47-0.346-12.8-0.879-19.3-0.04-0.964-0.0799-1.93-0.121-2.92 0.33-0.33 0.66-0.66 1-1 0.233-1.68 0.413-3.37 0.562-5.06 0.0838-0.919 0.168-1.84 0.254-2.79 0.0606-0.71 0.121-1.42 0.184-2.15-6.98-0.861-6.98-0.861-14-1-0.33 0.66-0.66 1.32-1 2 0.33-1.65 0.66-3.3 1-5z" fill="#BF10F8"/>
<path transform="translate(883,193)" d="m0 0h4c1.35 10.3 1.35 10.3 0 13 0.66 0.33 1.32 0.66 2 1 0.33 0.99 0.66 1.98 1 3h3v-4c0.99-0.33 1.98-0.66 3-1 0.33-0.66 0.66-1.32 1-2 2.56-0.625 2.56-0.625 5-1v2c0.99-0.33 1.98-0.66 3-1 0.33-0.99 0.66-1.98 1-3-0.66-0.33-1.32-0.66-2-1 0.33-0.66 0.66-1.32 1-2 2.56-0.625 2.56-0.625 5-1-0.165 0.639-0.33 1.28-0.5 1.94-0.539 1.87-0.539 1.87-0.5 3.06 0.66 0.33 1.32 0.66 2 1 1.06 3.7 1 7.18 1 11l1 2c-0.495 1.49-0.495 1.49-1 3-2.41 19.6-1.22 37.6 6 56-2.97-0.495-2.97-0.495-6-1v-2c-0.99-0.495-0.99-0.495-2-1-1.33-0.667-2.67-1.33-4-2v4c1.65 0.66 3.3 1.32 5 2-1.98 2.97-3.96 5.94-6 9-0.33-0.66-0.66-1.32-1-2h-2v2h-5c-0.66-1.32-1.32-2.64-2-4h-2v-3c-1.49-0.495-1.49-0.495-3-1-0.66-0.99-1.32-1.98-2-3-0.99 0.495-0.99 0.495-2 1 0.33-2.31 0.66-4.62 1-7 1.49-0.495 1.49-0.495 3-1-0.66-0.66-1.32-1.32-2-2-0.66-0.66-1.32-1.32-2-2-0.495 0.99-0.495 0.99-1 2-1.81-1.81-1.38-4.61-1.56-7.06-0.0838-1.1-0.168-2.21-0.254-3.35-0.0606-0.855-0.121-1.71-0.184-2.59h1c0.823-3.91 1.28-6.16 0-10h-2c-0.33 1.32-0.66 2.64-1 4-0.049-0.664-0.098-1.33-0.148-2.01-0.528-6.23-1.34-10.7-4.85-16-0.125-2.69-0.125-2.69 0-5-1.32-0.33-2.64-0.66-4-1 0.468-4.06 0.88-7.47 3-11h2v-5h2v-2h4v-9z" fill="#F227E1"/>
<path transform="translate(1027,261)" d="m0 0c2.39 3.83 2.56 7.6 3 12 0.99 0.33 1.98 0.66 3 1-0.33 0.66-0.66 1.32-1 2-0.99-0.495-0.99-0.495-2-1v4c-0.99 0.66-1.98 1.32-3 2-0.412 2.32-0.439 4.55-0.496 6.91-0.166 0.691-0.333 1.38-0.504 2.09-1.97 1.16-1.97 1.16-4 2-0.33 0.66-0.66 1.32-1 2-0.557-0.495-1.11-0.99-1.69-1.5-2.69-1.75-4.17-1.76-7.31-1.5-0.33 2.97-0.66 5.94-1 9-2-1-2-1-4-4-0.437-1.71-0.808-3.45-1.12-5.19-0.168-0.901-0.335-1.8-0.508-2.73-0.182-1.03-0.182-1.03-0.367-2.08-1.14 0.773-1.14 0.773-2.31 1.56-0.887 0.474-1.77 0.949-2.69 1.44-1.49-0.495-1.49-0.495-3-1-0.495 2.48-0.495 2.48-1 5 0.66 0.33 1.32 0.66 2 1 0.625 2.56 0.625 2.56 1 5 0.66-1.32 1.32-2.64 2-4 0.195 1.46 0.381 2.92 0.562 4.38 0.157 1.22 0.157 1.22 0.316 2.46 0.121 2.16 0.121 2.16-0.879 4.16h-2c-0.495 4.95-0.495 4.95-1 10h-2v-14c-3.8 1.27-4.66 2.89-7.06 6.06-6.3 7.83-12.4 14.2-22.6 15.9-3.7 0.0932-6.84-0.779-10.3-1.94-0.66-0.66-1.32-1.32-2-2 1.49-0.495 1.49-0.495 3-1 0.66-0.99 1.32-1.98 2-3-0.33-0.99-0.66-1.98-1-3 0.33-0.33 0.66-0.66 1-1-1.32-0.66-2.64-1.32-4-2 1.49-0.495 1.49-0.495 3-1h-11c-0.495-2.48-0.495-2.48-1-5-3.57 0.611-6.65 1.64-10 3h-2v-2c-2.31-0.66-4.62-1.32-7-2-1.37-4.28-0.387-6.84 1-11 5.28-0.932 9.63-1.38 14.8 0.438 7.1 2.44 16.1 3.26 23.2 0.25 1.01-0.557 2.02-1.11 3.06-1.69 1.64-0.557 1.64-0.557 3.31-1.12 7.77-3.34 14.3-10.3 17.7-17.9 0.186-0.784 0.371-1.57 0.562-2.38 0.144-0.536 0.289-1.07 0.438-1.62 0.99-0.33 1.98-0.66 3-1-0.278 0.959-0.278 0.959-0.562 1.94-0.217 1.02-0.217 1.02-0.438 2.06l1 1c0.0406 1.67 0.0427 3.33 0 5h-2v5h3c0.66-1.32 1.32-2.64 2-4h4c0.33-2.64 0.66-5.28 1-8 0.99 1.98 0.99 1.98 2 4 0.33-2.31 0.66-4.62 1-7h2c0.33-0.66 0.66-1.32 1-2 1.32 1.32 2.64 2.64 4 4-0.33 0.33-0.66 0.66-1 1 2.31 0.33 4.62 0.66 7 1-0.99-0.495-0.99-0.495-2-1v-3h2c0.33-0.66 0.66-1.32 1-2 0.495 3.96 0.495 3.96 1 8 1.32-0.66 2.64-1.32 4-2v-3h2c-0.0206-0.969-0.0412-1.94-0.0625-2.94 0.0625-3.06 0.0625-3.06 1.06-4.06z" fill="#E421EA"/>
<path transform="translate(616 126)" d="m0 0c0.742 0.144 1.49 0.289 2.25 0.438 0.66 0.99 1.32 1.98 2 3 0.474 0.552 0.949 1.1 1.44 1.67 2.21 3.3 3.31 6.83 4.56 10.6 0.499 1.46 0.999 2.93 1.5 4.39 0.247 0.726 0.494 1.45 0.749 2.2 0.959 2.76 1.98 5.49 3.02 8.22 1.17 3.09 2.3 6.2 3.42 9.31 0.437 1.2 0.874 2.41 1.32 3.65 0.988 2.98 0.988 2.98 0.988 4.98-0.99 0.33-1.98 0.66-3 1l-1 2c-2.03 0.225-4.05 0.444-6.09 0.559-2.31 0.305-2.31 0.305-3.91 3.44-1 1-1 1-3.72 1.1-1.1-0.0116-2.2-0.0232-3.34-0.0352-1.66-0.0135-1.66-0.0135-3.35-0.0273-0.855-0.0116-1.71-0.0232-2.59-0.0352-0.66 1.32-1.32 2.64-2 4h-5v-2h-3c-0.33 0.66-0.66 1.32-1 2-1.49 0.495-1.49 0.495-3 1-2.91-8.09-5.78-16.2-8.62-24.3-0.289-0.823-0.578-1.65-0.875-2.49-0.562-1.6-1.12-3.21-1.67-4.82-0.564-1.62-1.14-3.23-1.74-4.84-0.426-1.18-0.426-1.18-0.86-2.39-0.26-0.701-0.519-1.4-0.787-2.13-0.524-2.4-0.277-3.72 0.56-6.02 0.66-0.99 1.32-1.98 2-3h4c1-2 1.49-3.83 2-6 4.43-1.64 7.37-2.09 12.1-1.38 3.94 0.531 4.64 0.551 8.25-1.56 2.69-2.06 2.69-2.06 5.44-2.5z" fill="#FB2CC1"/>
<path transform="translate(910 348)" d="m0 0c3.75 1.34 4.59 3.57 6.62 6.94 5.1 7.66 13.4 11.4 22.2 13.4 1.86 0.309 1.86 0.309 3.75 0.625v2c0.66 0.33 1.32 0.66 2 1-5.58-0.632-11.1-1.53-16.6-2.6-2.5-0.484-2.5-0.484-5.42-0.402 0.186 0.619 0.371 1.24 0.562 1.88 0.438 2.12 0.438 2.12-0.562 4.12 0.99 0.33 1.98 0.66 3 1h-2c0.495 1.49 0.495 1.49 1 3l-1 1c2.31 0.66 4.62 1.32 7 2v3l2 1c0.66 0.99 1.32 1.98 2 3 1.96 0.577 1.96 0.577 4.12 0.688 1.28 0.103 2.56 0.206 3.88 0.312-0.33 1.65-0.66 3.3-1 5 0.639 0.103 1.28 0.206 1.94 0.312 0.681 0.227 1.36 0.454 2.06 0.688 0.33 0.99 0.66 1.98 1 3-1.13 0.289-2.27 0.577-3.44 0.875-1.18 0.371-2.35 0.743-3.56 1.12l-1 2c1.98 0.495 1.98 0.495 4 1-7.11 0.41-13.2-1.07-20-3-1.03-0.267-2.07-0.534-3.13-0.809-17.4-4.81-34.4-14.7-43.6-30.7-2.06-4.19-3.23-7.79-3.23-12.5 9.99-2.9 19.9-5.54 30.2-7.42 2.72-0.553 4.47-1.59 7.22-1.52z" fill="#EB25E7"/>
<path transform="translate(1334,151)" d="m0 0c2 2 2 2 4 5h-4c0.344 2.47 0.344 2.47 1 5 0.66 0.33 1.32 0.66 2 1-0.495-1.49-0.495-1.49-1-3h8v3h10c0.495 1.49 0.495 1.49 1 3-0.495 0.495-0.495 0.495-1 1 0.495 1.49 0.495 1.49 1 3-1.32 0.66-2.64 1.32-4 2v1h-6c0.495-1.49 0.495-1.49 1-3h-5c0.66 1.32 1.32 2.64 2 4-0.639 0.206-1.28 0.412-1.94 0.625-2.41 1.27-2.41 1.27-2.81 4.5-0.0825 0.949-0.165 1.9-0.25 2.88h7c-1 2-1 2-3.62 3.19-6.81 3.66-10.9 9.03-14.4 15.8-8.58 0.278-16.6-0.565-25-2-2.6-0.383-5.21-0.758-7.81-1.12-1.18-0.168-2.36-0.335-3.58-0.508-1.29-0.182-1.29-0.182-2.61-0.367-1.58-5.93 0.241-9.7 3-15 3.77-5.86 7.86-11.3 13-16 0.868-0.93 0.868-0.93 1.75-1.88 5.75-5.43 20.5-17.1 28.2-12.1z" fill="#B00AFA"/>
<path transform="translate(976 154)" d="m0 0c6.7 4.89 11.4 10.9 15.8 17.9 1.81 2.56 2.9 3.52 5.81 4.56-0.33 1.65-0.66 3.3-1 5-2.5-1.37-2.5-1.37-5-3v-2c-3.12 2.52-3.95 3.73-4.75 7.75-0.0825 1.07-0.165 2.15-0.25 3.25h-2v-6c-0.33 1.98-0.66 3.96-1 6h-2c0.276 1.94 0.276 1.94 1 4 1.49 0.99 1.49 0.99 3 2 2 2.93 3.35 5.5 4 9h2c0.66 2.31 1.32 4.62 2 7h-2c-0.268-0.534-0.536-1.07-0.812-1.62-5.63-10.7-13.2-21.4-25.2-25.4-1.59-0.093-3.19-0.131-4.79-0.133-0.942-0.00129-1.88-0.00258-2.86-0.00391-1.48 0.0058-1.48 0.0058-2.98 0.0117-0.96-0.00387-1.92-0.00773-2.91-0.0117-5.9 0.00801-11.6 0.376-17.5 1.14 0.33-1.65 0.66-3.3 1-5h2v-3c1.32-0.33 2.64-0.66 4-1-0.206-0.619-0.413-1.24-0.625-1.88-0.124-0.701-0.247-1.4-0.375-2.12 0.66-0.66 1.32-1.32 2-2 2.37-2.95 2.37-2.95 2-7h-3c0.33-0.66 0.66-1.32 1-2-4.06-0.774-7.86-1.1-12-1v-2c-5.32-1.08-10.6-2.15-16-3-0.33-1.32-0.66-2.64-1-4 2.33-0.703 4.66-1.36 7-2 0.9-0.264 1.8-0.529 2.73-0.801 18.2-4.87 36.7-3.12 52.6 7.36z" fill="#E421E9"/>
<path transform="translate(534,133)" d="m0 0c3 1 3 1 5 3.56 0.99 1.21 0.99 1.21 2 2.44 1.78 0 3.56-0.0168 5.34-0.0703 0.857-0.018 1.71-0.0361 2.6-0.0547 1.28-0.0348 1.28-0.0348 2.59-0.0703 2.63 0.208 4.22 0.866 6.47 2.2v3c3.28-0.752 3.28-0.752 5-4h1c0.33-0.99 0.66-1.98 1-3h6c0.702 1.24 1.39 2.49 2.06 3.75 0.383 0.696 0.766 1.39 1.16 2.11 1.45 4-0.833 8.03-2.18 11.9-0.584 1.68-0.584 1.68-1.18 3.39-0.407 1.17-0.815 2.33-1.23 3.53-2.38 6.82-4.74 13.6-7.01 20.5-1.11 3.31-2.37 6.56-3.61 9.83-1.21-2.33-2.17-4.5-3-7-1.5 0.0348-1.5 0.0348-3.04 0.0703-1.34 0.0188-2.68 0.037-4.03 0.0547-1.31 0.0232-2.62 0.0464-3.97 0.0703-4.16-0.205-7.1-0.709-11-2.2-0.495-1.49-0.495-1.49-1-3-0.33-0.66-0.66-1.32-1-2-0.969-0.248-1.94-0.495-2.94-0.75-3.06-1.25-3.06-1.25-4.44-4.38-0.206-0.949-0.413-1.9-0.625-2.88-0.99 0.495-0.99 0.495-2 1-1.12-3.3-0.932-4.86 0.5-8 2.68-6.24 4.84-12.6 7.04-19 0.289-0.839 0.579-1.68 0.877-2.54 0.257-0.753 0.515-1.51 0.78-2.28 0.805-2.13 1.75-4.12 2.81-6.13z" fill="#FB2BC0"/>
<path transform="translate(246,303)" d="m0 0h43c1.98 4.62 3.96 9.24 6 14 1.37 3.07 2.74 6.13 4.12 9.19 2.92 6.51 5.61 13 7.88 19.8-4.38 5.14-9.87 8.24-16 11h-3c-0.124-0.639-0.248-1.28-0.375-1.94-0.206-0.681-0.413-1.36-0.625-2.06l-2-1c-0.66-0.99-1.32-1.98-2-3-1.99-0.691-3.99-1.36-6-2-0.33-0.66-0.66-1.32-1-2-1.15-0.495-2.31-0.99-3.5-1.5-3.5-1.5-3.5-1.5-4.5-3.5-1.49-0.495-1.49-0.495-3-1v-2c-1.32-0.33-2.64-0.66-4-1-0.33-2.64-0.66-5.28-1-8h-2v-3h-2c-0.289-0.743-0.577-1.49-0.875-2.25-1.95-4.77-1.95-4.77-5.12-8.75 0.375-2.12 0.375-2.12 1-4-0.99-0.33-1.98-0.66-3-1v-4h-2v-2z" fill="#FD0042"/>
<path transform="translate(1041,148)" d="m0 0h1c0.33 23.8 0.66 47.5 1 72 0.495-8.91 0.495-8.91 1-18 0.66-1.98 1.32-3.96 2-6h1c0.33 13.2 0.66 26.4 1 40v-12c0.144-3.75 0.304-7.5 0.5-11.2 0.398-7.64 0.398-7.64 0.469-15.3 0.0312-3.45 0.0312-3.45 1.03-5.45 0.157-3.06 0.259-6.1 0.316-9.16 0.0208-0.907 0.0416-1.81 0.063-2.75 0.0655-2.9 0.124-5.81 0.183-8.71 0.0432-1.97 0.0868-3.93 0.131-5.9 0.107-4.83 0.208-9.65 0.307-14.5 2.59 3.89 2.31 7.15 2.32 11.7 0.0151 1.33 0.0151 1.33 0.0304 2.69 0.031 2.95 0.0479 5.9 0.0648 8.84 0.0187 2.07 0.0383 4.13 0.0587 6.2 0.0515 5.46 0.091 10.9 0.128 16.4 0.0317 4.39 0.0713 8.77 0.112 13.2 0.33 35.9 0.33 35.9 0.24 47.3-0.00819 1.16-0.0164 2.32-0.0248 3.51-0.0182 1.98-0.0449 3.96-0.0839 5.93-0.0955 9.54 2.37 18.3 4.86 27.5l0.293 2.79c-1.45 1.74-1.45 1.74-3 3 0.228 2.16 0.228 2.16 1 4-1.32-0.33-2.64-0.66-4-1 0.33 0.33 0.66 0.66 1 1 0.362 1.33 0.697 2.66 1 4h-4v2h-2v-2h-3c-0.495 0.99-0.495 0.99-1 2-0.33-0.99-0.66-1.98-1-3-0.0251 0.776-0.0501 1.55-0.0759 2.35-0.117 3.55-0.239 7.1-0.362 10.6-0.0393 1.22-0.0786 2.44-0.119 3.7-0.216 6.16-0.536 12.2-1.44 18.3h-1v-10h-2c-0.0233-11.9-0.041-23.8-0.0518-35.7-0.00518-5.53-0.0122-11.1-0.0236-16.6-0.011-5.36-0.0169-10.7-0.0194-16.1-0.00182-2.03-0.00539-4.05-0.0109-6.08-0.0279-10.8 0.129-21.6 0.731-32.3 0.451-8.15 0.596-16.3 0.691-24.4 0.0207-1.54 0.0417-3.08 0.063-4.62 0.0542-3.98 0.104-7.96 0.153-11.9 0.051-4.09 0.106-8.18 0.161-12.3 0.106-7.97 0.208-15.9 0.307-23.9z" fill="#FCFCFE"/>
<path transform="translate(1497,206)" d="m0 0h2c-0.504 2.77-1.11 5.33-2.03 8-1.41 4.93-1.21 9.84-1.15 14.9 0.00679 1.62 0.00679 1.62 0.0137 3.27 0.0109 2.33 0.0264 4.67 0.046 7 0.0302 3.69 0.047 7.38 0.0601 11.1 0.0397 10.5 0.105 21 0.176 31.5 0.0426 6.42 0.0708 12.8 0.0903 19.3 0.0106 2.45 0.027 4.9 0.0493 7.34 0.0311 3.41 0.0439 6.83 0.0528 10.2 0.0139 1.02 0.0279 2.03 0.0422 3.08-0.00185 1.39-0.00185 1.39-0.00374 2.81 0.00536 0.807 0.0107 1.61 0.0163 2.44-0.462 2.65-1.19 3.52-3.36 5.08-2.99 0.286-5.77 0.396-8.75 0.363-1.28 7.48e-4 -1.28 7.48e-4 -2.6 0.00151-1.81-0.00234-3.62-0.0121-5.43-0.0286-2.78-0.0236-5.55-0.0206-8.33-0.0139-1.76-0.00558-3.51-0.0127-5.27-0.0215-1.25 0.00137-1.25 0.00137-2.53 0.00276-5.86-0.0725-5.86-0.0725-8.1-2.3-0.586-7.01-0.0876-14.1 1-21h1c0.33 3.63 0.66 7.26 1 11 2.47-0.99 2.47-0.99 5-2 1.48-0.495 1.48-0.495 3-1 0.33-0.99 0.66-1.98 1-3 3.46-0.495 3.46-0.495 7-1v-4c0.645-0.235 1.29-0.469 1.95-0.711 2.25-1.1 2.25-1.1 2.66-3.45 0.0696-1.22 0.0696-1.22 0.141-2.46 0.0567-0.817 0.113-1.63 0.172-2.48 0.0258-0.626 0.0516-1.25 0.0781-1.9h2c-0.33 1.65-0.66 3.3-1 5 1.42-0.309 1.42-0.309 2.88-0.625 1.55-0.186 1.55-0.186 3.12-0.375 0.66 0.66 1.32 1.32 2 2 2.6-0.32 2.6-0.32 5-1 0.0853-13.9-0.185-27.7-0.5-41.6-0.0483-2.19-0.0965-4.37-0.145-6.56-0.117-5.29-0.235-10.6-0.355-15.9h-2c-1.99-5.77-2.25-10.9-2.12-16.9 0.00902-0.875 0.018-1.75 0.0273-2.65 0.0234-2.14 0.0592-4.27 0.0977-6.41h3c0.33-1.32 0.66-2.64 1-4h7c0.33-0.99 0.66-1.98 1-3z" fill="#A509FB"/>
<path transform="translate(521,168)" d="m0 0c0.66 0.66 1.32 1.32 2 2 0.66-0.33 1.32-0.66 2-1 0.144 0.598 0.289 1.2 0.438 1.81 0.45 1.75 0.991 3.47 1.56 5.19 0.969 0.124 1.94 0.248 2.94 0.375 1.01 0.206 2.02 0.412 3.06 0.625 0.667 1.33 1.33 2.67 2 4-0.33 0.66-0.66 1.32-1 2 7.36 0.708 14.6 1.15 22 1 2.95 4.99 2.04 9.47 1 15-1.29 4.43-2.8 8.77-4.34 13.1-2.51 7.19-4.61 14.5-6.66 21.9h-1c-0.049-0.771-0.098-1.54-0.148-2.34-0.0748-1-0.15-2.01-0.227-3.04-0.104-1.5-0.104-1.5-0.211-3.02-0.178-2.76-0.178-2.76-2.41-4.6v-2c-1.46-1.63-1.46-1.63-3-3-0.33 0.66-0.66 1.32-1 2v-2h-9c-0.33-0.99-0.66-1.98-1-3-2.31 0.66-4.62 1.32-7 2-0.278-0.866-0.278-0.866-0.562-1.75-2.18-3.42-4.81-4.47-8.44-6.25h-3c0.577-4.88 1.59-9.24 3.19-13.9 0.322-0.944 0.322-0.944 0.651-1.91 0.712-2.08 1.44-4.15 2.16-6.22 0.271-0.775 0.542-1.55 0.821-2.35 1.71-4.89 3.44-9.77 5.18-14.7z" fill="#FC1FA9"/>
<path transform="translate(332,70)" d="m0 0c0.571 0.295 1.14 0.59 1.73 0.895 2.17 1.06 4.33 1.93 6.58 2.79 6.4 2.53 12.6 5.49 18.8 8.43 2.89 1.36 5.79 2.68 8.7 4.01 5.46 2.51 10.8 5.15 16.2 7.88 0.731 0.335 1.46 0.67 2.21 1.02 1.79 0.984 1.79 0.984 2.79 2.98 0.526 8.44-0.311 17-0.938 25.4-0.087 1.24-0.174 2.49-0.264 3.77-0.727 10-0.727 10-1.8 14.9h-1v-9h-2c-0.33-1.65-0.66-3.3-1-5-0.577 0.235-1.15 0.469-1.75 0.711-2.25 0.289-2.25 0.289-4.25-1.11-0.66-0.652-1.32-1.3-2-1.98-2.69-2.64-4.33-3.83-8-4.62-1.38-2.15-2-3.44-2-6-1.32-1.02-2.65-2.02-4-3-0.33-0.66-0.66-1.32-1-2-2.68-2.32-4.62-3.87-8-5-0.495-2.47-0.495-2.47-1-5-0.99-0.33-1.98-0.66-3-1-2.22-2.88-3.83-5.09-4.5-8.69-0.261-2.48-0.261-2.48-2.5-3.69-2-1.62-2-1.62-2.81-5.12-0.188-3.5-0.188-3.5 0.812-6.5-0.804-0.268-1.61-0.536-2.44-0.812-0.846-0.392-1.69-0.784-2.56-1.19-0.33-0.99-0.66-1.98-1-3z" fill="#FC1FA9"/>
<path transform="translate(1336,226)" d="m0 0v3h3v2h11c0.66 1.32 1.32 2.64 2 4 0.66 0.33 1.32 0.66 2 1 0.33-0.66 0.66-1.32 1-2v4h-2c0.66 0.66 1.32 1.32 2 2h-3c1.27 4.42 1.27 4.42 4 8 2.89 0.464 2.89 0.464 6.12 0.625 1.1 0.0748 2.19 0.15 3.32 0.227 1.26 0.0735 1.26 0.0735 2.55 0.148v-2c2.64 0.33 5.28 0.66 8 1-2.99 2.99-6.65 2.96-10.7 3.56-1.19 0.189-1.19 0.189-2.4 0.381-3.55 0.561-7.11 1.08-10.7 1.55-3.8 0.595-7.27 1.69-10.9 2.89-2.33 0.621-2.33 0.621-6.33 0.621-0.33 0.99-0.66 1.98-1 3-4.03 2.62-8.35 2.86-13 2-2.56-2.38-2.56-2.38-4-5v-2h-3v-3c-1.65-0.33-3.3-0.66-5-1 0.66-0.33 1.32-0.66 2-1v-2c-0.722 0.0412-1.44 0.0825-2.19 0.125-3.02-0.134-5.08-0.877-7.81-2.12-0.144 0.804-0.289 1.61-0.438 2.44-0.562 2.56-0.562 2.56-1.56 3.56-1.67 0.0406-3.33 0.0427-5 0-0.144-0.949-0.289-1.9-0.438-2.88-0.392-3.02-0.392-3.02-1.56-5.12 1.12-0.839 2.25-1.67 3.38-2.5 0.626-0.464 1.25-0.928 1.9-1.41 1.73-1.09 1.73-1.09 3.73-1.09 0.33-0.99 0.66-1.98 1-3 3.49-1.75 6.07-3 10-3v-2c2.5-0.848 5-1.68 7.5-2.5 0.696-0.238 1.39-0.477 2.11-0.723 4.98-1.61 9.16-2.01 14.4-1.78z" fill="#B00AFA"/>
<path transform="translate(486,268)" d="m0 0c1.88 0.25 1.88 0.25 4 1 2 2.92 2.56 6.06 3.19 9.5 0.269 1.41 0.269 1.41 0.543 2.84 0.261 2.57 0.0762 4.23-0.73 6.66 1.65 0.33 3.3 0.66 5 1v2h2c0.248 0.577 0.495 1.15 0.75 1.75 1.42 2.55 3.13 4.27 5.25 6.25-0.33 0.66-0.66 1.32-1 2-0.0849 1.89-0.107 3.78-0.0977 5.66 0.00322 1.12 0.00645 2.24 0.00977 3.4 0.00838 1.18 0.0168 2.35 0.0254 3.56 0.00451 1.18 0.00902 2.37 0.0137 3.59 0.0118 2.93 0.0283 5.86 0.0488 8.79-1.98 0.495-1.98 0.495-4 1v-4c-0.536 0.33-1.07 0.66-1.62 1-2.91 1.23-5.24 1.14-8.38 1 1.65 0.33 3.3 0.66 5 1v1c-4.29 0.66-8.58 1.32-13 2v2h-17c-1.08-4.31-0.872-5.13 0.688-9.06 0.379-0.981 0.758-1.96 1.15-2.97 0.384-0.978 0.768-1.96 1.16-2.96 0.61-1.66 1.21-3.33 1.81-5 1.25-3.43 2.51-6.86 3.79-10.3 4.04-10.8 7.82-21.7 11.4-32.7z" fill="#FC1072"/>
<path transform="translate(239 302)" d="m0 0c0.697 0.0522 1.39 0.104 2.11 0.158 1.71 0.129 3.42 0.266 5.14 0.404v2h2c0.124 0.639 0.248 1.28 0.375 1.94 0.206 0.681 0.412 1.36 0.625 2.06 0.66 0.33 1.32 0.66 2 1 0.144 0.804 0.289 1.61 0.438 2.44 0.328 2.91 0.328 2.91 3.56 4.56v3c0.311 1.67 0.641 3.34 1 5h2v3h2c0.495 3.96 0.495 3.96 1 8 1.32 0.33 2.64 0.66 4 1v2c1.32 0.33 2.64 0.66 4 1v2c1.13 0.268 2.27 0.536 3.44 0.812 1.76 0.588 1.76 0.588 3.56 1.19 0.33 0.99 0.66 1.98 1 3 0.949-0.0206 1.9-0.0412 2.88-0.0625 3.12 0.0625 3.12 0.0625 5.12 1.06v4c1.32 0.66 2.64 1.32 4 2-0.36 2.69-0.726 3.76-2.82 5.56-0.761 0.474-1.52 0.949-2.3 1.44-0.812 0.51-1.62 1.02-2.46 1.55-0.797 0.48-1.59 0.959-2.41 1.45-0.652 0.397-1.3 0.794-1.98 1.2-3.24 1.91-6.49 3.51-10 4.8v-3h2v-2l-2-1c-2.02-2.27-2.94-3.58-3.38-6.62-0.206-0.784-0.413-1.57-0.625-2.38-2.48-1.37-2.48-1.37-5-2v-3h-2c-0.66-0.99-1.32-1.98-2-3h-3v-3c-1.49-0.495-1.49-0.495-3-1-0.289-0.619-0.577-1.24-0.875-1.88-0.973-2.36-0.973-2.36-3.62-3.25-3.56-2.67-3.27-5.38-3.9-9.62-0.404-2.55-0.404-2.55-3.23-3.88-0.784-0.124-1.57-0.248-2.38-0.375v-3h-2c-0.534-1.41-1.05-2.83-1.56-4.25-0.29-0.789-0.58-1.58-0.879-2.39-0.615-2.6-0.261-3.84 0.441-6.36-0.33-0.99-0.66-1.98-1-3h-2v-2c3.9-1.36 7.71-0.895 11.8-0.562z" fill="#FD073B"/>
<path transform="translate(634,174)" d="m0 0h3c2.69 6.99 5.35 14 8 21 0.287 0.755 0.574 1.51 0.87 2.29 0.719 1.9 1.43 3.81 2.13 5.71 0.588 1.58 0.588 1.58 1.19 3.19 0.798 2.76 0.981 4.95 0.812 7.81-2.46-2.46-3-4.71-4-8h-2v2c-1.98 0.495-1.98 0.495-4 1-0.33-0.99-0.66-1.98-1-3-4.72-0.652-9.22-1.12-14-1 0.33-0.99 0.66-1.98 1-3h-2c-0.66 0.99-1.32 1.98-2 3h-2v2c-2.76 1.8-3.89 2.01-7.25 1.62-0.908-0.206-1.82-0.412-2.75-0.625-0.33 1.98-0.66 3.96-1 6-1.98 0.495-1.98 0.495-4 1-0.171-0.59-0.343-1.18-0.519-1.79-0.78-2.68-1.57-5.35-2.36-8.02-0.269-0.929-0.539-1.86-0.816-2.81-0.264-0.893-0.529-1.79-0.801-2.71-0.241-0.822-0.482-1.64-0.73-2.49-0.766-2.42-0.766-2.42-2.78-5.18 0.375-3.69 0.375-3.69 1-7 4.05-1.16 6.22-0.837 10 1 0.217-0.959 0.217-0.959 0.438-1.94 0.562-2.06 0.562-2.06 1.56-3.06 4.16-0.16 7.95 0.0175 12 1 1.12-2.12 1.12-2.12 2-5h9c0.33-0.99 0.66-1.98 1-3z" fill="#FB21B3"/>
<path transform="translate(1191,150)" d="m0 0c0.33 1.98 0.66 3.96 1 6-0.99 0.66-1.98 1.32-3 2 0 3.81 0.513 7.52 0.977 11.3 0.025 2.87-0.483 4.28-1.98 6.69h-3c2.47 0.99 2.47 0.99 5 2 0.33 2.31 0.66 4.62 1 7h-3v3c0.66 0.33 1.32 0.66 2 1 0.99 0.66 1.98 1.32 3 2h3v3c-1.18 0.433-1.18 0.433-2.38 0.875-2.72 0.974-2.72 0.974-4.62 3.12-2.62 0.125-2.62 0.125-5 0 0.33 0.66 0.66 1.32 1 2h3c0.237 13.6 0.237 13.6-2.56 16.8-0.712 0.588-0.712 0.588-1.44 1.19 0.66 0.33 1.32 0.66 2 1-1.48 0.495-1.48 0.495-3 1v5c-0.66-1.32-1.32-2.64-2-4-3.89 3.21-3.89 3.21-5.31 7.81 0.103 0.722 0.206 1.44 0.312 2.19-0.99 0.495-0.99 0.495-2 1-0.75-27-1.28-54 0-81 4.89-2.44 11.8-2.55 17-1z" fill="#BD11F5"/>
<path transform="translate(1e3 285)" d="m0 0 2 1c0.562 1.93 0.562 1.93 1 4.31 0.597 3.23 1.42 5.8 3 8.69 0.66-2.64 1.32-5.28 2-8h3v4c-0.99 0.495-0.99 0.495-2 1-0.184 9.06-0.184 9.06 1 18 0.66 0.66 1.32 1.32 2 2-0.375 2.12-0.375 2.12-1 4h2c1.12 3.36 0.914 3.94-0.25 7.12-0.281 0.793-0.562 1.59-0.852 2.4-0.296 0.816-0.593 1.63-0.898 2.47-1.75 4.99-3.32 9.73-4 15-0.66-0.66-1.32-1.32-2-2h-3-5c-0.99 4.29-1.98 8.58-3 13-2.97 0.495-2.97 0.495-6 1 0.186-0.619 0.371-1.24 0.562-1.88 0.674-2.17 0.674-2.17-0.562-4.12 0.452-1.24 0.905-2.48 1.37-3.75 2.21-6.27 2.36-12.6 2.69-19.2 1.12-20.9 1.12-20.9 4.94-29.1-0.99-0.66-1.98-1.32-3-2-1.78-4.11-2.21-7.55-2-12 0.866 0.34 0.866 0.34 1.75 0.688 2.37 0.578 2.37 0.578 4.5-1.12 0.866-0.773 0.866-0.773 1.75-1.56z" fill="#E120EE"/>
<path transform="translate(521,168)" d="m0 0c0.66 0.66 1.32 1.32 2 2 0.66-0.33 1.32-0.66 2-1 0.144 0.598 0.289 1.2 0.438 1.81 0.45 1.75 0.991 3.47 1.56 5.19 0.969 0.124 1.94 0.248 2.94 0.375 1.01 0.206 2.02 0.412 3.06 0.625 0.667 1.33 1.33 2.67 2 4-0.33 0.66-0.66 1.32-1 2 7.36 0.708 14.6 1.15 22 1 2.96 4.89 1.94 9.57 1 15-0.83 2.79-1.84 5.32-3 8h-3c-0.495-2.97-0.495-2.97-1-6h-8c-0.33-0.99-0.66-1.98-1-3-0.33 0.33-0.66 0.66-1 1-2.02 0.0724-4.04 0.0838-6.06 0.0625-1.1-0.00902-2.21-0.018-3.35-0.0273-0.855-0.0116-1.71-0.0232-2.59-0.0352v-2c-1.32 0.33-2.64 0.66-4 1-0.99-2.31-1.98-4.62-3-7h-2c-0.33-0.66-0.66-1.32-1-2-0.99 0.66-1.98 1.32-3 2-0.426-5.55 1.08-9.77 3-14.9 0.286-0.784 0.572-1.57 0.867-2.38 0.702-1.92 1.42-3.84 2.13-5.75z" fill="#FB21B3"/>
<path transform="translate(764,152)" d="m0 0c0.33 1.32 0.66 2.64 1 4 1.11 0.103 2.23 0.206 3.38 0.312 1.79 0.34 1.79 0.34 3.62 0.688 0.99 1.49 0.99 1.49 2 3 0.99 0.33 1.98 0.66 3 1 1.22 2.96 0.965 5 0 8h2c0.33-2.31 0.66-4.62 1-7 1.65-0.33 3.3-0.66 5-1 0.911 3.07 1.09 5.8 1 9h-2c-0.33 0.66-0.66 1.32-1 2-0.495-1.49-0.495-1.49-1-3 0.33-0.66 0.66-1.32 1-2h-2v12c-0.99-0.33-1.98-0.66-3-1v3c-3.62 1.81-7.85 1.87-11.8 2.4-2.8 0.528-4.74 1.17-7.16 2.6-5.86-5.86-5.86-5.86-6.26-9.11 0.00696-1.97 0.125-3.93 0.258-5.89-0.33 1.65-0.66 3.3-1 5-1.89-3.19-2-5.35-2-9-0.66-0.99-1.32-1.98-2-3 3.17-3.26 6.39-6.23 10-9 1.08-0.866 1.08-0.866 2.19-1.75 1.81-1.25 1.81-1.25 3.81-1.25z" fill="#FA31D6"/>
<path transform="translate(706 146)" d="m0 0c0.859-0.0057 1.72-0.0114 2.6-0.0173 1.82-0.00946 3.64-0.016 5.47-0.0198 2.79-0.00971 5.59-0.0407 8.38-0.0723 1.77-0.00653 3.53-0.0118 5.3-0.0156 1.26-0.0185 1.26-0.0185 2.54-0.0374 2.36 0.00909 2.36 0.00909 6.15 0.366 2.2 3.3 2.24 4.27 2.2 8.11-0.00645 0.983-0.0129 1.97-0.0195 2.98-0.0168 1.02-0.0335 2.05-0.0508 3.1-0.00902 1.04-0.018 2.07-0.0273 3.14-0.0236 2.56-0.0565 5.12-0.0977 7.67-0.66-0.33-1.32-0.66-2-1v-5c-0.99-0.33-1.98-0.66-3-1-0.926-0.534-0.926-0.534-1.87-1.08-2.64-1.15-4.34-0.998-7.19-0.672-0.857 0.0877-1.71 0.175-2.6 0.266-2.6 0.385-2.6 0.385-5.34 2.48v1c-2.97 0.33-5.94 0.66-9 1-0.0619-0.784-0.124-1.57-0.188-2.38-0.268-0.866-0.536-1.73-0.812-2.62-0.825-0.309-1.65-0.619-2.5-0.938-0.825-0.351-1.65-0.701-2.5-1.06-0.333-2-0.667-4-1-6-2.46-1.45-2.46-1.45-5-2 1.3-7.22 3.76-6.17 10.6-6.2z" fill="#FB31D5"/>
<path transform="translate(1272,155)" d="m0 0c0.99 0.33 1.98 0.66 3 1v115c0.66-2.64 1.32-5.28 2-8h1c2.21 8.4 2.21 16.4 2 25h-2v8c-1.76-3.17-2.25-5.24-3-9-0.33 14.9-0.66 29.7-1 45h-2c-1.62-3.23-1.14-6.77-1.13-10.3-0.00173-0.868-0.00346-1.74-0.00524-2.63-0.00438-2.91-0.0014-5.82 0.00182-8.73-0.00102-2.06-0.00235-4.12-4e-3 -6.19-0.00271-5.56 0.00178-11.1 0.00824-16.7 0.00356-3.44 0.00519-6.88 0.00626-10.3 0.0157-40.7 0.397-81.4 1.12-122z" fill="#FBF2FD"/>
<path transform="translate(240,188)" d="m0 0c2 1 2 1 2.68 2.68 0.315 1.09 0.315 1.09 0.637 2.2 1.09 3.45 2.34 6.67 3.88 9.94 3.63 7.8 6.72 15.8 9.87 23.8 0.844 2.13 1.7 4.26 2.57 6.38 0.454 1.13 0.908 2.27 1.38 3.43 0.588 1.45 0.588 1.45 1.19 2.93 0.812 2.63 0.812 2.63 0.812 7.63h-41v-1c0.574-0.0251 1.15-0.0501 1.74-0.0759 2.63-0.117 5.26-0.239 7.88-0.362 0.904-0.0393 1.81-0.0786 2.74-0.119 4.62-0.219 9.09-0.544 13.6-1.44-0.289-4.79-0.289-4.79-2.56-8.81-0.712-0.588-0.712-0.588-1.44-1.19v-2h2v-5h-2c-1.68-4.93-1.86-7.95-1-13-0.845-3.29-0.845-3.29-2-6-0.66 0.33-1.32 0.66-2 1-0.66-1.98-1.32-3.96-2-6h1c0.66-4.95 1.32-9.9 2-15z" fill="#FD073B"/>
<path transform="translate(1438,196)" d="m0 0h1c0.765 4.07 1.12 7.91 1.12 12-9.06e-4 1.82-9.06e-4 1.82-0.00183 3.67-0.0063 1.34-0.0129 2.69-0.0197 4.03-0.00382 1.44-0.00744 2.88-0.0109 4.32-0.0641 20.6-0.318 41.1-0.546 61.7-0.0616 5.57-0.121 11.1-0.181 16.7-0.117 10.8-0.235 21.7-0.355 32.5-3.99 1.1-7.83 1.18-11.9 1.2-0.764 0.0057-1.53 0.0114-2.32 0.0173-1.61 0.00942-3.22 0.016-4.83 0.0198-2.47 0.00975-4.93 0.0408-7.4 0.0723-1.57 0.00653-3.13 0.0118-4.7 0.0156-0.738 0.0123-1.48 0.0247-2.24 0.0374-5.05-0.0221-5.05-0.0221-7.54-1.66-1.73-2.85-1.33-5.47-1.03-8.7l2-2c0.33 1.98 0.66 3.96 1 6h2c0.495-0.495 0.99-0.99 1.5-1.5 0.495-0.495 0.99-0.99 1.5-1.5h2v-6c3.13-1.04 3.99-0.934 7 0 0.33 2.31 0.66 4.62 1 7 0.835-0.278 0.835-0.278 1.69-0.562 2.31-0.438 2.31-0.438 4.56 0.312 3.91 0.355 5.75-1.5 8.79-3.82 0.648-0.308 1.3-0.616 1.96-0.934 2.25 0.848 2.25 0.848 4 2v-2h2v-123z" fill="#B40BF9"/>
<path transform="translate(1295,175)" d="m0 0h3v4c0.66 0.33 1.32 0.66 2 1 0.33-0.66 0.66-1.32 1-2 0.33 0.99 0.66 1.98 1 3 2.94 1.18 3.9 1.03 7 0 2.19 0.938 2.19 0.938 4 2-0.33 1.65-0.66 3.3-1 5 0.598-0.186 1.2-0.371 1.81-0.562 3.56-0.711 6.08 1.01 9.19 2.56 0.99 0.33 1.98 0.66 3 1 0.495 1.49 0.495 1.49 1 3 1.32-1.32 2.64-2.64 4-4 0.66 0.33 1.32 0.66 2 1-0.619 0.743-1.24 1.49-1.88 2.25-1.74 2.26-2.92 4.21-4.12 6.75-8.58 0.278-16.6-0.565-25-2-2.6-0.383-5.21-0.758-7.81-1.12-1.18-0.168-2.36-0.335-3.58-0.508-0.86-0.121-1.72-0.242-2.61-0.367-1.78-6.45 1.03-11.3 4.05-17 1.01-1.64 1.01-1.64 2.95-4.02z" fill="#B60CF8"/>
<path transform="translate(141,316)" d="m0 0c2.44 0.375 2.44 0.375 5 1 0.33 0.66 0.66 1.32 1 2 0.66-0.33 1.32-0.66 2-1 0.66 2.31 1.32 4.62 2 7h2c-0.141 1.46-0.288 2.92-0.438 4.38-0.0812 0.812-0.162 1.62-0.246 2.46-0.316 2.16-0.316 2.16-1.32 4.16-0.207 2.67-0.374 5.33-0.5 8-0.365 7.73-0.365 7.73-1.5 10-4.47 1.41-6.66 1.64-10.9-0.395-7.8-4.83-7.8-4.83-9.06-8.61 0.665-2.25 0.665-2.25 1.77-4.86 0.396-0.951 0.791-1.9 1.2-2.88 0.424-0.993 0.848-1.99 1.29-3.01 0.409-0.977 0.817-1.95 1.24-2.96 1.16-2.77 2.33-5.53 3.51-8.29 0.479-1.12 0.479-1.12 0.967-2.26 0.676-1.58 1.35-3.16 2.03-4.74z" fill="#FC0919"/>
<path transform="translate(1094,199)" d="m0 0c0.33 0.66 0.66 1.32 1 2h2c-0.00524 0.582-0.0105 1.16-0.0159 1.76-0.0918 11.9 0.0446 23.7 0.658 35.5 0.367 7.24 0.469 14.4 0.358 21.7-0.99 0.495-0.99 0.495-2 1-0.433-0.784-0.866-1.57-1.31-2.38-1.58-2.84-1.58-2.84-4.69-4.62 0.33-0.66 0.66-1.32 1-2h-2c-0.33 0.66-0.66 1.32-1 2 0.33-2.31 0.66-4.62 1-7h-3c0.0232-0.843 0.0464-1.69 0.0703-2.55 0.018-1.1 0.0361-2.19 0.0547-3.32 0.0348-1.64 0.0348-1.64 0.0703-3.3 0.105-2.96 0.105-2.96-2.2-4.82 0.99-0.495 0.99-0.495 2-1v-7h2c-0.33-0.99-0.66-1.98-1-3h3v-21c0.33 0.66 0.66 1.32 1 2 0.33-0.99 0.66-1.98 1-3 0.66-0.33 1.32-0.66 2-1z" fill="#E020EF"/>
<path transform="translate(175,39)" d="m0 0c-0.581 4.76-1.99 8.69-4 13-0.482 1.05-0.964 2.11-1.46 3.2-4.42 9.64-4.42 9.64-6.54 13.8-3.7-1.95-5.25-3.26-7-7-0.99-0.33-1.98-0.66-3-1-0.33-1.65-0.66-3.3-1-5h-3.81-10.2v-2c1.06-0.459 2.12-0.918 3.22-1.39 8.69-3.72 8.69-3.72 17.2-7.8 2.76-1.4 5.51-2.76 8.31-4.06 0.717-0.335 1.43-0.67 2.17-1.02 2.08-0.734 2.08-0.734 6.08-0.734z" fill="#FD062B"/>
<path transform="translate(1458 147)" d="m0 0c1.64 3.17e-4 3.28 0.0117 4.92 0.0317 1.29 0.00424 1.29 0.00424 2.61 0.00858 2.76 0.0112 5.52 0.0363 8.28 0.0617 1.87 0.01 3.74 0.0192 5.61 0.0273 4.59 0.0221 9.18 0.0566 13.8 0.0977 1.5 4.02 2.24 7.33 2.2 11.6-0.00645 1.02-0.0129 2.04-0.0195 3.09-0.0168 1.05-0.0335 2.09-0.0508 3.17-0.00902 1.07-0.018 2.14-0.0273 3.24-0.0235 2.63-0.0563 5.26-0.0977 7.88 1.32-0.33 2.64-0.66 4-1-0.66 1.65-1.32 3.3-2 5-0.99-0.33-1.98-0.66-3-1-0.914-2.47-0.914-2.47-1.62-5.5-0.606-3.55-0.606-3.55-2.38-6.5-0.0408-2-0.0425-4 0-6-1.55 0.278-1.55 0.278-3.12 0.562-3.64 0.411-6.33 0.216-9.88-0.562v-2c0.99-0.66 1.98-1.32 3-2-0.66-0.66-1.32-1.32-2-2-0.33-0.99-0.66-1.98-1-3-2.29-1.15-3.8-1.2-6.35-1.32-1.28-0.0628-1.28-0.0628-2.58-0.127-0.889-0.0393-1.78-0.0786-2.7-0.119-0.897-0.0432-1.79-0.0864-2.72-0.131-2.22-0.106-4.44-0.207-6.66-0.307-0.744 6.08-1.19 12.1-1.32 18.2-0.0208 0.831-0.0416 1.66-0.063 2.52-0.0647 2.62-0.124 5.24-0.183 7.85-0.0433 1.79-0.0869 3.58-0.131 5.37-0.106 4.36-0.208 8.71-0.307 13.1h-1c-0.193-6.8-0.371-13.6-0.537-20.4-0.0585-2.31-0.121-4.63-0.187-6.94-0.0939-3.32-0.175-6.64-0.253-9.96-0.0322-1.04-0.0644-2.08-0.0976-3.15-0.0202-0.961-0.0403-1.92-0.0611-2.91-0.0222-0.848-0.0444-1.7-0.0673-2.57 0.4-4.07 2.21-4.06 6.01-4.29z" fill="#A509FB"/>
<path transform="translate(1497,211)" d="m0 0h2c0.0234 14 0.041 28 0.0518 42.1 0.00521 6.51 0.0123 13 0.0236 19.5 0.0109 6.29 0.0169 12.6 0.0194 18.9 0.00184 2.39 0.00544 4.79 0.0109 7.18 0.00731 3.36 0.00826 6.73 0.0078 10.1 0.0036 0.98 0.00719 1.96 0.0109 2.97-0.0201 13.6-0.0201 13.6-1.12 19.3-0.99 0.495-0.99 0.495-2 1-1.1-74.6-1.1-74.6-1.18-96.4-0.00677-1.57-0.017-3.14-0.0308-4.71-0.0175-2.11-0.0222-4.23-0.0225-6.34-0.00411-1.12-0.00822-2.24-0.0125-3.39 0.28-3.67 1.13-6.69 2.24-10.2z" fill="#FCFCFE"/>
<path transform="translate(863,209)" d="m0 0h1c0.33 1.98 0.66 3.96 1 6 0.99-0.33 1.98-0.66 3-1-0.144 0.681-0.289 1.36-0.438 2.06-1.51 7.88-1.75 15.4-1.75 23.4-0.0122 1.2-0.0245 2.4-0.0371 3.63-0.0101 6.07 0.273 11.1 2.22 16.9v4h-2c-0.495-1.49-0.495-1.49-1-3-0.495 2.48-0.495 2.48-1 5 0.66 0.33 1.32 0.66 2 1v2c-1.32-0.33-2.64-0.66-4-1-0.33-2.64-0.66-5.28-1-8-0.99 0.66-1.98 1.32-3 2-0.116-16.4 0.00959-32.7 1-49h1v5h2c0.33-2.97 0.66-5.94 1-9z" fill="#FBFAFE"/>
<path transform="translate(641,316)" d="m0 0c0.413 0.474 0.825 0.949 1.25 1.44 1.93 1.73 3.23 2.13 5.75 2.56 0.66-0.99 1.32-1.98 2-3 1.32 0.33 2.64 0.66 4 1 0.33 2.31 0.66 4.62 1 7 0.784-0.0412 1.57-0.0825 2.38-0.125 2.62 0.125 2.62 0.125 4.62 2.12 2.66 0.565 5.29 0.738 8 1v2c1.95-0.186 1.95-0.186 3.94-0.375 0.731-0.0696 1.46-0.139 2.21-0.211 0.61-0.137 1.22-0.273 1.85-0.414 0.33-0.66 0.66-1.32 1-2 0.99 0.33 1.98 0.66 3 1 0.268-0.536 0.536-1.07 0.812-1.62 1.4-2.79 2.79-5.58 4.19-8.38 2.68 3.08 3.42 5.2 3.69 9.25 0.0986 1.34 0.0986 1.34 0.199 2.7 0.0561 1.01 0.0561 1.01 0.113 2.05-6.19 0.0989-12.4 0.171-18.6 0.22-2.11 0.0201-4.21 0.0474-6.32 0.082-3.03 0.0485-6.06 0.0712-9.08 0.0889-1.41 0.031-1.41 0.031-2.85 0.0626-6.54 0.00224-6.54 0.00224-9.72-2.34-1.5-2.21-2.45-4.13-3.25-6.68-0.254-0.764-0.508-1.53-0.77-2.32-0.418-2.12-0.418-2.12 0.582-5.12z" fill="#FB20B2"/>
<path transform="translate(1228,190)" d="m0 0h2c0.0103 1.21 0.0206 2.42 0.0312 3.67 0.0981 11.5 0.201 22.9 0.308 34.4 0.055 5.89 0.108 11.8 0.158 17.7 0.048 5.69 0.1 11.4 0.156 17.1 0.0203 2.16 0.039 4.33 0.0561 6.49 0.0876 10.9 0.181 21.8 1.29 32.7 0.99 0.33 1.98 0.66 3 1 0.33-1.65 0.66-3.3 1-5h4v-5h1c0.221 6.1 0.0117 11.2-2 17-3.39 0-5.81-0.915-9-2h-2v-118z" fill="#BE0EF5"/>
<path transform="translate(1213,293)" d="m0 0h2c0.0246 5.39 0.0428 10.8 0.0549 16.2 0.00504 1.84 0.0119 3.67 0.0205 5.51 0.0121 2.63 0.0178 5.27 0.0222 7.9 0.00516 0.826 0.0103 1.65 0.0156 2.5 1.96e-4 1.97-0.0513 3.94-0.113 5.91-1 1-1 1-4.42 1.11-1.52-1.59e-4 -3.04-0.00585-4.55-0.0159-0.798-0.00141-1.6-0.00283-2.42-0.00429-2.56-0.00562-5.12-0.0182-7.67-0.0309-1.73-0.00501-3.46-0.00958-5.19-0.0137-4.25-0.011-8.5-0.0283-12.7-0.0488v-2h6c-0.495-1.49-0.495-1.49-1-3 4.24-0.99 8.46-1.32 12.8-1.62 2.41-0.195 2.41-0.195 4.21-2.38 6.05-2.28 6.05-2.28 9.94-1.12 1.02 0.557 1.02 0.557 2.06 1.12-0.186-0.743-0.371-1.49-0.562-2.25-0.451-2.83-0.13-4.04 0.562-6.75 0.143-1.66 0.245-3.32 0.316-4.98 0.0628-1.4 0.0628-1.4 0.127-2.83 0.0393-0.968 0.0786-1.94 0.119-2.93 0.0648-1.48 0.0648-1.48 0.131-2.98 0.106-2.42 0.208-4.85 0.307-7.27z" fill="#D51BF4"/>
<path transform="translate(1285,275)" d="m0 0h5c0.33 1.65 0.66 3.3 1 5h5c0.495 7.92 0.495 7.92 1 16 0.99 0.33 1.98 0.66 3 1-0.33 0.99-0.66 1.98-1 3-0.784-0.351-1.57-0.701-2.38-1.06-0.866-0.309-1.73-0.619-2.62-0.938-0.66 0.33-1.32 0.66-2 1v-2c-1.98 0.99-3.96 1.98-6 3-3-4.62-3-4.62-3-8-0.99-0.33-1.98-0.66-3-1-1.35-4.05-0.621-6.79 0-11 0.99-0.33 1.98-0.66 3-1 0.33-0.66 0.66-1.32 1-2 0.33-0.66 0.66-1.32 1-2z" fill="#B00AFA"/>
<path transform="translate(1279 235)" d="m0 0c1.13 0.0206 2.27 0.0412 3.44 0.0625-0.0326 2.02-0.0651 4.04-0.0977 6.05-0.0288 2.03-0.0288 2.03 1.1 3.95h-2c0.33 0.66 0.66 1.32 1 2 1.32-0.66 2.64-1.32 4-2 0.33 0.66 0.66 1.32 1 2 0.99 0.33 1.98 0.66 3 1-0.557 0.722-1.11 1.44-1.69 2.19-2.88 4.26-4.42 9.08-6.16 13.9-1.15 2.93-1.15 2.93-3.15 5.93-0.66-0.99-1.32-1.98-2-3-0.99 2.48-0.99 2.48-2 5h-1c-0.0247-5.11-0.0428-10.2-0.0549-15.3-0.00504-1.74-0.0119-3.48-0.0205-5.22-0.0121-2.49-0.0178-4.99-0.0222-7.48-0.00516-0.782-0.0103-1.56-0.0156-2.37-1.96e-4 -1.87 0.0513-3.74 0.113-5.6 1-1 1-1 4.56-1.06z" fill="#FCFCFE"/>
<path transform="translate(1042,237)" d="m0 0v96c-0.99-0.33-1.98-0.66-3-1v-94c2-1 2-1 3-1z" fill="#FBF2FD"/>
<path transform="translate(1227,186)" d="m0 0h2c-9.22e-4 0.608-0.00184 1.22-0.00279 1.84-0.0222 14.9-0.0387 29.8-0.049 44.7-0.00512 7.21-0.0121 14.4-0.0236 21.6-0.0101 6.3-0.0164 12.6-0.0186 18.9-0.00129 3.32-0.00479 6.65-0.0116 9.97-0.031 15.7 0.219 31.3 1.11 46.9 0.66 0.33 1.32 0.66 2 1v2c-4.88-1.75-4.88-1.75-6-4-0.0818-1.89-0.0972-3.78-0.0823-5.67 0.00704-1.21 0.0141-2.41 0.0213-3.65 0.013-1.34 0.0261-2.69 0.0392-4.03 0.0101-1.41 0.0198-2.82 0.0291-4.23 0.0265-3.83 0.0593-7.66 0.0931-11.5 0.0343-4 0.0629-8.01 0.0921-12 0.0562-7.58 0.118-15.2 0.181-22.7 0.0717-8.63 0.138-17.3 0.203-25.9 0.135-17.8 0.277-35.5 0.424-53.3z" fill="#FCFDFF"/>
<path transform="translate(1186,156)" d="m0 0c2.25 1.94 2.25 1.94 4 4-0.33 0.33-0.66 0.66-1 1 0.224 2.76 0.586 5.49 0.941 8.24 0.0621 2.93-0.41 4.31-1.94 6.76h-6c-0.33-1.98-0.66-3.96-1-6h-4v-2h-2c0.188-1.88 0.188-1.88 1-4 0.825-0.309 1.65-0.619 2.5-0.938 0.825-0.351 1.65-0.701 2.5-1.06 0.894-2.55 0.894-2.55 1-5 1.75-0.75 1.75-0.75 4-1z" fill="#C010F7"/>
<path transform="translate(1535,144)" d="m0 0c3.1-0.029 6.21-0.0468 9.31-0.0625 0.881-0.00838 1.76-0.0168 2.67-0.0254 0.848-0.00322 1.7-0.00645 2.57-0.00977 1.17-0.00786 1.17-0.00786 2.36-0.0159 2.08 0.114 2.08 0.114 5.08 1.11 1.61 3.23 1.12 6.75 1.1 10.3-0.00141 0.818-0.00283 1.64-0.00429 2.48-0.00561 2.62-0.0182 5.24-0.0309 7.86-0.00501 1.77-0.00958 3.55-0.0137 5.32-0.011 4.35-0.0283 8.7-0.0488 13.1-4.22 1.25-7.96 0.673-12.2 0.0625-0.745-0.0999-1.49-0.2-2.26-0.303-1.83-0.247-3.66-0.502-5.49-0.76v-1h16c-0.33-0.99-0.66-1.98-1-3h2c-0.0206-1.18-0.0412-2.35-0.0625-3.56-0.00458-2.64 0.144-4.94 0.562-7.56 0.861-6.67 1.65-14.4-0.5-20.9-6.6-0.33-13.2-0.66-20-1v-2z" fill="#A609FB"/>
<path transform="translate(1497,211)" d="m0 0h2c-0.33 15.2-0.66 30.4-1 46h-3c-0.0496-5.43-0.0858-10.9-0.11-16.3-0.01-1.84-0.0236-3.69-0.041-5.53-0.0244-2.66-0.0356-5.32-0.0444-7.98-0.0103-0.817-0.0206-1.63-0.0313-2.48-9.62e-4 -4.97 0.635-9.03 2.23-13.7z" fill="#FBF2FD"/>
<path transform="translate(364,87)" d="m0 0c5.15 0.526 9.38 1.76 14 4 0.868 0.409 1.74 0.817 2.63 1.24 7.23 3.49 7.23 3.49 8.37 5.76 0.0703 1.87 0.0843 3.75 0.0625 5.62-0.00902 1-0.018 2.01-0.0273 3.04-0.0116 0.771-0.0232 1.54-0.0352 2.34h-2v-8c-1.07-0.0619-2.14-0.124-3.25-0.188-4.53-0.981-5.01-2.28-7.75-5.81-2.97-0.829-2.97-0.829-6-1-1.34-0.317-2.67-0.643-4-1v-2h3v-2c-1.65-0.33-3.3-0.66-5-1v-1z" fill="#FB21B3"/>
<path transform="translate(1399,150)" d="m0 0c10.1 2.24 18.2 7.36 25 15 0.763 0.743 1.53 1.49 2.31 2.25 1.69 1.75 1.69 1.75 3.69 4.75-0.33 0.99-0.66 1.98-1 3-0.598-0.825-1.2-1.65-1.81-2.5-0.722-0.825-1.44-1.65-2.19-2.5h-3c-2.01-1.31-4.01-2.65-6-4h-2c-0.289-0.784-0.578-1.57-0.875-2.38-2.53-5.91-8.52-9.02-14.1-11.6v-2z" fill="#B00AFA"/>
<path transform="translate(1014,383)" d="m0 0c0.33 1.32 0.66 2.64 1 4-7.09 6.54-17.3 11.6-27.1 12.2-0.959-0.0928-0.959-0.0928-1.94-0.188 0.562-1.88 0.562-1.88 2-4 3.44-1.12 3.44-1.12 7-2 0.99-0.66 1.98-1.32 3-2-0.33-0.66-0.66-1.32-1-2 1.13-0.124 2.27-0.248 3.44-0.375 1.76-0.309 1.76-0.309 3.56-0.625 0.33-0.66 0.66-1.32 1-2 2-0.347 4-0.68 6-1 0.99-0.66 1.98-1.32 3-2z" fill="#E120EE"/>
<path transform="translate(1035,348)" d="m0 0h2c0.424 8.91-0.98 17.1-7 24-2.75 0.375-2.75 0.375-5 0 0.495-1.11 0.99-2.23 1.5-3.38 1.63-3.28 1.63-3.28 1.5-5.62 0.99-0.66 1.98-1.32 3-2-0.498-2.76-0.498-2.76-2-5-0.0408-2-0.0425-4 0-6 1.21-0.217 1.21-0.217 2.44-0.438 2.48-0.304 2.48-0.304 3.56-1.56z" fill="#E121EE"/>
<path transform="translate(1272,85)" d="m0 0h2c1.37 2.75 1.12 4.94 1.11 8.01-1.13e-4 1.89-1.13e-4 1.89-2.29e-4 3.82-0.00511 1.38-0.0103 2.76-0.0156 4.14-0.00186 1.41-0.00329 2.82-0.00429 4.23-0.00382 3.71-0.0136 7.42-0.0247 11.1-0.0102 3.79-0.0148 7.57-0.0198 11.4-0.0107 7.43-0.0278 14.9-0.0488 22.3h-1v-24h-2v-41z" fill="#FCFAFE"/>
<path transform="translate(867,218)" d="m0 0h2c0.971 3.78 0.762 6.23 0 10-0.0433 1.54-0.0402 3.08 0 4.62 0.0932 8.47-0.509 16.9-1 25.4h-1v-5h-2c-0.0292-4.35-0.0469-8.71-0.0625-13.1-0.00838-1.23-0.0168-2.46-0.0254-3.72-0.0319-11.8-0.0319-11.8 1.09-17.2 0.33-0.33 0.66-0.66 1-1z" fill="#F227E1"/>
<path transform="translate(1269,320)" d="m0 0h2v12c-10.6-0.33-21.1-0.66-32-1 0.33-0.66 0.66-1.32 1-2h5v-2l4-1v3c0.94-0.217 0.94-0.217 1.9-0.438 0.817-0.186 1.63-0.371 2.48-0.562 0.812-0.186 1.62-0.371 2.46-0.562 3.35-0.678 6.75-0.438 10.2-0.438 0.33-0.66 0.66-1.32 1-2h2v-5z" fill="#C711F4"/>
<path transform="translate(1097,190)" d="m0 0h2v52h-2c-0.793-12-1.11-24.1-1.12-36.1-0.0025-0.674-5e-3 -1.35-0.00757-2.04-0.00587-1.93-0.00323-3.85-2.44e-4 -5.78 0.00113-1.12 0.00226-2.24 0.00342-3.39 0.129-2.66 0.129-2.66 1.13-4.66z" fill="#FBF5FD"/>
<path transform="translate(1274,285)" d="m0 0c2.36 2.36 2.49 3.78 3 7 0.66-1.32 1.32-2.64 2-4 0.268 0.681 0.536 1.36 0.812 2.06 0.85 2.1 1.75 4.18 2.69 6.25 1.58 3.9 2.57 7.59 3.5 11.7l-4-1v-4h-2c-0.66 0.66-1.32 1.32-2 2-2.15-3.23-2.2-4.28-2-8h-2v-12z" fill="#FBFBFE"/>
<path transform="translate(859,261)" d="m0 0h1c0.927 3.93 1.13 7.59 1.13 11.6 0.00129 1.28 0.00258 2.57 0.00391 3.89-0.00209 0.666-0.00419 1.33-0.00635 2.02-0.00529 2 4.43e-4 3.99 0.00635 5.99-0.00786 7.88-0.33 15.6-1.14 23.5h-1c-0.831-9.58-1.16-19.1-1.13-28.7 0.00548-2.18-4.73e-5 -4.37-0.00635-6.55 6.59e-4 -1.39 0.00194-2.78 0.00391-4.17 0.00113-1.25 0.00226-2.49 0.00342-3.78 0.129-2.83 0.129-2.83 1.13-3.83z" fill="#FCFDFF"/>
<path transform="translate(1230,289)" d="m0 0h1c0.33 4.29 0.66 8.58 1 13 0.99 0.33 1.98 0.66 3 1 0.33-1.65 0.66-3.3 1-5h4v-5h1c0.221 6.1 0.0117 11.2-2 17-3.24 0-5.1-0.625-8-2-1.65-3.31-1.1-6.99-1.06-10.6 0.00451-0.802 0.00902-1.6 0.0137-2.43 0.0118-1.98 0.0297-3.96 0.0488-5.95z" fill="#BC11F6"/>
<path transform="translate(220,389)" d="m0 0c4.34-0.167 7.21-0.13 11 2-1.39 0.989-2.79 1.97-4.19 2.94-0.777 0.545-1.55 1.09-2.36 1.65-2.57 1.48-4.52 2.1-7.46 2.41-2.31-0.938-2.31-0.938-4-2 0.812-2.44 0.812-2.44 2-5 0.99-0.33 1.98-0.66 3-1 0.66 0.33 1.32 0.66 2 1v-2z" fill="#FD0637"/>
<path transform="translate(257,229)" d="m0 0c2.34 2.34 2.99 4.21 4.12 7.31 0.353 0.945 0.706 1.89 1.07 2.86 0.805 2.82 0.805 2.82 0.805 7.82h-18v-1c2.97-0.66 5.94-1.32 9-2-0.33-0.66-0.66-1.32-1-2h3c0.169-1.42 0.335-2.83 0.5-4.25 0.0928-0.789 0.186-1.58 0.281-2.39 0.28-2.63 0.28-2.63 0.219-6.36z" fill="#FD0042"/>
<path transform="translate(172,244)" d="m0 0c4.46 0.138 8.92 0.287 13.4 0.438 1.27 0.0393 2.54 0.0786 3.85 0.119 1.21 0.0419 2.42 0.0838 3.67 0.127 1.12 0.0367 2.24 0.0733 3.4 0.111 2.71 0.205 2.71 0.205 4.71 1.21v2h-28c-0.33-1.32-0.66-2.64-1-4z" fill="#FBF2FD"/>
<path transform="translate(1034,285)" d="m0 0h3v11h-2v5c-0.66 0.33-1.32 0.66-2 1-1.12-3.75-1.12-3.75 0-6h-5c0.186-0.577 0.371-1.15 0.562-1.75 0.478-2.46 0.195-3.89-0.562-6.25 0.804-0.124 1.61-0.248 2.44-0.375 0.846-0.206 1.69-0.413 2.56-0.625 0.33-0.66 0.66-1.32 1-2z" fill="#E420EA"/>
<path transform="translate(1014,214)" d="m0 0c0.66 0.33 1.32 0.66 2 1v6h2c0.66-0.99 1.32-1.98 2-3v2c1.32-0.33 2.64-0.66 4-1-0.66 1.32-1.32 2.64-2 4h-2c-0.254 0.71-0.508 1.42-0.77 2.15-0.344 0.919-0.688 1.84-1.04 2.79-0.505 1.37-0.505 1.37-1.02 2.78-1.17 2.29-1.17 2.29-4.17 3.29-0.0272-2.21-0.0465-4.42-0.0625-6.62-0.0116-1.23-0.0232-2.46-0.0352-3.73 0.089-3.33 0.461-6.39 1.1-9.65z" fill="#E420EF"/>
<path transform="translate(1058,234)" d="m0 0c1.43 5.31 2.4 9.54 1 15h-4c-1.38-2.76-1.1-5.05-1.06-8.12 0.00902-1.1 0.018-2.19 0.0273-3.32 0.0116-0.843 0.0232-1.69 0.0352-2.55 2-1 2-1 4-1z" fill="#C610F4"/>
<path transform="translate(994,301)" d="m0 0h3v28h-1c-0.798-6.7-1.13-13.3-1-20h-2c-0.33 0.99-0.66 1.98-1 3-0.33-0.66-0.66-1.32-1-2h-3c1.53-3.44 3.45-6.22 6-9z" fill="#FBF8FE"/>
<path transform="translate(1228,308)" d="m0 0h1c0.33 7.26 0.66 14.5 1 22 0.66 0.33 1.32 0.66 2 1v2c-4.88-1.75-4.88-1.75-6-4-0.125-2.62-0.185-5.2-0.188-7.81-0.0122-0.712-0.0245-1.42-0.0371-2.16-0.0115-4.13 0.379-7.32 2.22-11z" fill="#FBF8FE"/>
<path transform="translate(1292,182)" d="m0 0c0.33 1.32 0.66 2.64 1 4h-2c0.33 2.31 0.66 4.62 1 7 0.557 0.124 1.11 0.248 1.69 0.375 2.53 0.685 4.89 1.62 7.31 2.62v1c-4.29-0.33-8.58-0.66-13-1-1.13-5.66-1.13-5.66 0.312-9.25 0.264-0.686 0.529-1.37 0.801-2.08 0.887-1.67 0.887-1.67 2.89-2.67z" fill="#BE0FF8"/>
<path transform="translate(217,136)" d="m0 0c0.99 0.33 1.98 0.66 3 1 1.19 3.56 1.19 3.56 2 7-2.05 1.1-3.86 1.97-6.12 2.5-2.1 0.393-2.1 0.393-3.88 2.5 0.607-4.86 2.73-8.74 5-13z" fill="#FD063B"/>
<path transform="translate(1028,354)" d="m0 0c2.06 1.75 2.06 1.75 4 4-0.125 2-0.125 2-1 4-0.309 0.722-0.619 1.44-0.938 2.19-1.06 1.81-1.06 1.81-3.06 2.81v-3c-1.32-0.33-2.64-0.66-4-1 0.33-1.98 0.66-3.96 1-6 1.32-0.33 2.64-0.66 4-1v-2z" fill="#E321EA"/>
<path transform="translate(1261,121)" d="m0 0h5v11c-3 0-3 0-4.69-1.06-1.99-2.94-1.57-5.49-1.31-8.94 0.33-0.33 0.66-0.66 1-1z" fill="#BD12F6"/>
<path transform="translate(1032,211)" d="m0 0c0.66 0.66 1.32 1.32 2 2-0.189 3.46-0.39 6.07-2.31 9-1.69 1-1.69 1-3.88 0.688-0.598-0.227-1.2-0.454-1.81-0.688v-5c0.33 0.66 0.66 1.32 1 2h2v-7c0.99-0.33 1.98-0.66 3-1z" fill="#E321EA"/>
<path transform="translate(681,302)" d="m0 0c2.21 2.21 3 3.95 4.19 6.81 0.365 0.852 0.73 1.7 1.11 2.58 0.798 2.94 0.525 4.7-0.293 7.61l-2-1v-2h-2c-0.771-4.72-1.1-9.22-1-14z" fill="#FB20B2"/>
<path transform="translate(1495,163)" d="m0 0c0.66 0.99 1.32 1.98 2 3 0.99-0.66 1.98-1.32 3-2 1.16 4.05 0.837 6.22-1 10h-2c-0.66 0.66-1.32 1.32-2 2-1.49-4.47-1.49-8.53 0-13z" fill="#FBF2FD"/>
<path transform="translate(738,312)" d="m0 0h1c0.196 3.15 0.38 6.29 0.562 9.44 0.0561 0.898 0.112 1.8 0.17 2.72 0.0483 0.854 0.0967 1.71 0.146 2.59 0.0471 0.791 0.0943 1.58 0.143 2.4-0.0217 1.86-0.0217 1.86-1.02 2.86-1.52 0.0718-3.04 0.0839-4.56 0.0625-0.826-0.00902-1.65-0.018-2.5-0.0273-0.957-0.0174-0.957-0.0174-1.93-0.0352 0.33-0.66 0.66-1.32 1-2h4c1.99-5.96 2.57-11.7 3-18z" fill="#FC2CC1"/>
<path transform="translate(1356,309)" d="m0 0h9v2h-7v4 1h-9c-0.33-1.65-0.66-3.3-1-5 2.31 0.33 4.62 0.66 7 1 0.33-0.99 0.66-1.98 1-3z" fill="#A509FB"/>
<path transform="translate(1231,85)" d="m0 0h16v3h-16c-0.33 0.66-0.66 1.32-1 2 0.33-1.65 0.66-3.3 1-5z" fill="#BC11F6"/>
<path transform="translate(1283,262)" d="m0 0c1.12 3.75 1.12 3.75 0 6-0.23 2.2-0.411 4.41-0.562 6.62-0.0838 1.19-0.168 2.38-0.254 3.6-0.0606 0.915-0.121 1.83-0.184 2.77-0.99-0.33-1.98-0.66-3-1 0.142-2.08 0.288-4.17 0.438-6.25 0.0812-1.16 0.162-2.32 0.246-3.52 0.48-4.91 0.48-4.91 1.32-7.23 0.66-0.33 1.32-0.66 2-1z" fill="#BC0FF7"/>
<path transform="translate(52,171)" d="m0 0c2.45 3.74 2.23 7.44 2.12 11.8-0.00902 0.697-0.018 1.39-0.0273 2.11-0.0235 1.71-0.0593 3.42-0.0977 5.14h-2c-1.06-5.98-1.36-11.9-1-18 0.33-0.33 0.66-0.66 1-1z" fill="#FC071C"/>
<path transform="translate(50,155)" d="m0 0c0.99 0.33 1.98 0.66 3 1 0.745 6.37 1.1 12.6 1 19-1.84-1.57-2.89-2.51-3.43-4.9-0.0262-0.696-0.0524-1.39-0.0793-2.11-0.0354-0.757-0.0709-1.51-0.107-2.29-0.0226-0.786-0.0451-1.57-0.0684-2.38-0.0342-0.797-0.0683-1.59-0.104-2.42-0.0824-1.97-0.147-3.93-0.209-5.9z" fill="#FB0409"/>
<path transform="translate(1097,243)" d="m0 0h3v20h-2c-0.902-2.71-1.12-4.24-1.1-7.01 0.00322-0.757 0.00645-1.51 0.00977-2.29 0.00838-0.786 0.0168-1.57 0.0254-2.38 0.00451-0.797 0.00902-1.59 0.0137-2.42 0.0118-1.97 0.0297-3.93 0.0488-5.9z" fill="#FCFBFE"/>
<path transform="translate(692,320)" d="m0 0c3.29 3.29 5 7.36 5 12-1.98 0.33-3.96 0.66-6 1 0.33-4.29 0.66-8.58 1-13z" fill="#FBF2FD"/>
<path transform="translate(859,205)" d="m0 0h1c1.1 4.41 1.08 8.48 1 13h-1c-0.33 5.28-0.66 10.6-1 16h-1c-0.0289-4.46-0.0468-8.92-0.0625-13.4-0.00838-1.27-0.0168-2.54-0.0254-3.85-0.00322-1.21-0.00645-2.42-0.00977-3.67-0.00524-1.12-0.0105-2.24-0.0159-3.4 0.114-2.71 0.114-2.71 1.11-4.71z" fill="#FCFDFF"/>
<path transform="translate(1007,147)" d="m0 0c4.38-0.0247 8.76-0.0429 13.1-0.0549 1.49-0.00503 2.98-0.0119 4.47-0.0205 2.14-0.0121 4.28-0.0178 6.42-0.0222 1.29-0.00524 2.58-0.0105 3.9-0.0159 3.07 0.114 3.07 0.114 5.07 1.11-0.33 1.32-0.66 2.64-1 4-0.66-1.32-1.32-2.64-2-4h-30v-1z" fill="#E220EF"/>
<path transform="translate(1529,183)" d="m0 0h18v2c-8.41 0.495-8.41 0.495-17 1-0.33-0.99-0.66-1.98-1-3z" fill="#FCFCFE"/>
<path transform="translate(1335,334)" d="m0 0h12c0.33 0.99 0.66 1.98 1 3h-14c0.33-0.99 0.66-1.98 1-3z" fill="#FBF2FD"/>
<path transform="translate(1371,330)" d="m0 0c-6.56 2.78-13 4-20 5 1.25-1.5 1.25-1.5 3-3h4c0.33-0.66 0.66-1.32 1-2 1.96-0.449 1.96-0.449 4.38-0.688 1.19-0.13 1.19-0.13 2.4-0.262 2.23-0.0508 2.23-0.0508 5.23 0.949z" fill="#B80DF8"/>
<path transform="translate(951,395)" d="m0 0c0.33 1.32 0.66 2.64 1 4h-3v3c-1.65-0.33-3.3-0.66-5-1 0.66-0.99 1.32-1.98 2-3-0.66-0.66-1.32-1.32-2-2 2.46-1.23 4.28-1.07 7-1z" fill="#E420EE"/>
<path transform="translate(149,357)" d="m0 0c4.46 0.99 4.46 0.99 9 2 0.33 1.32 0.66 2.64 1 4-4.17-0.473-6.93-1.05-10-4v-2z" fill="#FC081F"/>
<path transform="translate(1258,217)" d="m0 0c0.99 0.33 1.98 0.66 3 1v5c0.99-0.33 1.98-0.66 3-1-0.33 0.99-0.66 1.98-1 3h-2c-0.66 0.66-1.32 1.32-2 2-1.84-3.78-2.16-5.95-1-10z" fill="#BF10F9"/>
<path transform="translate(738,168)" d="m0 0c0.66 0.66 1.32 1.32 2 2 0.66-0.33 1.32-0.66 2-1 0.33 0.99 0.66 1.98 1 3-1.94 3.19-1.94 3.19-4 6-2.57-3.85-1.83-5.59-1-10z" fill="#FBF2FD"/>
<path transform="translate(1258,228)" d="m0 0c0.66 0.33 1.32 0.66 2 1 0.225 2.03 0.444 4.05 0.559 6.09 0.305 2.31 0.305 2.31 3.44 3.91h-2c-0.33 0.99-0.66 1.98-1 3-0.99-0.33-1.98-0.66-3-1-0.125-6.75-0.125-6.75 1-9h-2c0.33-1.32 0.66-2.64 1-4z" fill="#BF10F9"/>
<path transform="translate(739,164)" d="m0 0c0.598 0.33 1.2 0.66 1.81 1 2.24 1.21 2.24 1.21 5.19 1-0.66 1.65-1.32 3.3-2 5h-4c-2-3-2-3-1.62-5.19 0.206-0.598 0.413-1.2 0.625-1.81z" fill="#FBFCFE"/>
<path transform="translate(217,136)" d="m0 0c0.99 0.33 1.98 0.66 3 1 0.875 1.88 0.875 1.88 1 4-1.44 1.75-1.44 1.75-3 3v-2c-0.99 0.33-1.98 0.66-3 1 0.875-5.88 0.875-5.88 2-7z" fill="#FD0146"/>
<path transform="translate(931,367)" d="m0 0c5.94 0.99 5.94 0.99 12 2v2l2 1c-5.41-0.467-9.21-1.24-14-4v-1z" fill="#E924E8"/>
<path transform="translate(1391,281)" d="m0 0c0.99 0.33 1.98 0.66 3 1-2.34 6.65-2.34 6.65-5.69 8.44-0.763 0.186-1.53 0.371-2.31 0.562 1.67-3.33 3.33-6.67 5-10z" fill="#AC09FB"/>
<path transform="translate(1253,146)" d="m0 0h3c2.33 3.63 2.16 6.77 2 11-0.66-0.33-1.32-0.66-2-1-0.333-1.67-0.667-3.33-1-5-0.66-0.33-1.32-0.66-2-1v-4z" fill="#BD12F6"/>
<path transform="translate(49,98)" d="m0 0v14h-1v-7h-2v-6c2-1 2-1 3-1z" fill="#FD0723"/>
</svg>
